<?xml version="1.0" standalone="no"?>
<!DOCTYPE svg PUBLIC "-//W3C//DTD SVG 1.1//EN" "http://www.w3.org/Graphics/SVG/1.1/DTD/svg11.dtd" >
<svg xmlns="http://www.w3.org/2000/svg" xmlns:xlink="http://www.w3.org/1999/xlink" version="1.1">
<metadata>
Created by FontForge 20200314 at Fri Feb 12 09:20:56 2016
 By Unknown
Copyright (c) 2007 by Michael Parson / Typogama. All rights reserved.
</metadata>
<defs>
<font id="JaneLightW00-Regular" horiz-adv-x="450" >
  <font-face 
    font-family="JaneLightW00-Regular"
    font-weight="400"
    font-stretch="normal"
    units-per-em="1000"
    panose-1="2 0 5 6 0 0 0 2 0 4"
    ascent="800"
    descent="-200"
    x-height="387"
    cap-height="505"
    bbox="-11.8182 -206 811 800"
    underline-thickness="50"
    underline-position="-125"
    unicode-range="U+0020-FB02"
  />
<missing-glyph horiz-adv-x="500" 
d="M438 0h-375v800h375v-800zM375 63v675h-250v-675h250z" />
    <glyph glyph-name=".notdef" horiz-adv-x="500" 
d="M438 0h-375v800h375v-800zM375 63v675h-250v-675h250z" />
    <glyph glyph-name="glyph1" horiz-adv-x="0" 
 />
    <glyph glyph-name="glyph1" horiz-adv-x="0" 
 />
    <glyph glyph-name="nonmarkingreturn" horiz-adv-x="333" 
 />
    <glyph glyph-name="space" unicode=" " horiz-adv-x="226" 
 />
    <glyph glyph-name="exclam" unicode="!" horiz-adv-x="181" 
d="M68 483q0 24 23 24q24 0 24 -24v-347q0 -24 -24 -24q-23 0 -23 24v347zM115 23q0 -24 -24 -24q-23 0 -23 24v10q0 23 23 23q24 0 24 -23v-10z" />
    <glyph glyph-name="quotedbl" unicode="&#x22;" horiz-adv-x="238" 
d="M84 481q0 -36 19.5 -40t22.5 -14q1 -3 1 -6q0 -17 -17 -22q-25 -6 -46 10q-27 21 -27 72v20q0 23 24 23q23 0 23 -23v-20zM168 481q0 -36 17 -40q22 -4 25 -14q1 -3 1 -6q0 -17 -18 -22q-24 -6 -45 10q-27 21 -27 72v20q0 23 23 23q24 0 24 -23v-20z" />
    <glyph glyph-name="numbersign" unicode="#" horiz-adv-x="468" 
d="M335 170v-80q0 -23 -23 -23q-24 0 -24 23v80h-110v-80q0 -23 -24 -23q-23 0 -23 23v80h-73q-23 0 -23 24t23 24h73v113h-73q-23 0 -23 24q0 23 23 23h73v76q0 24 23 24q24 0 24 -24v-76h110v76q0 24 24 24q23 0 23 -24v-76h73q23 0 23 -23q0 -24 -23 -24h-73v-113h73
q23 0 23 -24t-23 -24h-73zM288 331h-110v-113h110v113z" />
    <glyph glyph-name="dollar" unicode="$" horiz-adv-x="496" 
d="M227 -7q-135 6 -182 109q-10 21 11 31t31 -12q35 -76 140 -81v210q-171 11 -171 124q0 60 48 98q46 35 123 40v47q0 24 23 24q24 0 24 -24v-47q87 -7 143 -63q7 -7 7 -17t-7 -16q-17 -17 -33 0q-43 42 -110 49v-170q181 -5 181 -128q0 -28 -10 -57q-16 -48 -62 -79.5
t-109 -36.5v-54q0 -23 -24 -23q-23 0 -23 23v53zM227 465q-117 -7 -123 -75q-6 -86 123 -94v169zM274 41q57 6 93 35q41 34 41 91q0 77 -134 81v-207z" />
    <glyph glyph-name="percent" unicode="%" horiz-adv-x="584" 
d="M138 296q-96 0 -96 106q0 49 25.5 77t70.5 28q95 0 95 -105q0 -106 -95 -106zM177 358q9 12 9 44q0 58 -48 58q-49 0 -49 -58q0 -33 10 -46t39 -13t39 15zM453 -3q-96 0 -96 105q0 50 25.5 78t70.5 28q95 0 95 -105q0 -106 -95 -106zM491 57q10 13 10 46q0 57 -48 57
q-49 0 -49 -58q0 -32 10 -45t39 -13t38 13zM437 495q13 20 33 7q19 -13 6 -33l-308 -461q-13 -19 -32 -6q-20 13 -7 32z" />
    <glyph glyph-name="ampersand" unicode="&#x26;" horiz-adv-x="493" 
d="M376 24q-50 -33 -123 -33q-101 0 -153 51q-44 44 -44 110q0 55 30.5 96t81.5 59q-27 40 -27 84q0 34 15 62q33 61 114 61q59 0 92.5 -32.5t33.5 -90.5q0 -41 -30 -74q-39 -42 -114 -46q47 -65 129 -176q19 28 19 59q0 23 23 23q24 0 24 -23q0 -56 -36 -99q18 -24 15 -20
q5 -6 5 -14q0 -12 -9 -19q-19 -14 -33 5zM236 317q69 0 97 35q15 18 15 39q0 76 -78 76q-53 0 -73 -37q-9 -17 -9 -39q0 -29 15 -51q5 -9 16 -23h17zM198 266q-44 -11 -69.5 -41t-25.5 -73q0 -54 39 -84t111 -30q57 0 94 24q-100 135 -149 204z" />
    <glyph glyph-name="quotesingle" unicode="'" horiz-adv-x="162" 
d="M95 418q-7 -22 -30 -16q-22 7 -15 30l22 74q7 23 30 16q22 -7 15 -29z" />
    <glyph glyph-name="parenleft" unicode="(" horiz-adv-x="305" 
d="M247 -33q16 -17 0 -33q-17 -17 -34 0q-70 70 -100 127q-44 83 -44 192q0 175 144 320q17 17 34 0q16 -17 0 -33q-131 -131 -131 -287q0 -97 38 -170q28 -51 93 -116z" />
    <glyph glyph-name="parenright" unicode=")" horiz-adv-x="305" 
d="M203 61q-30 -57 -101 -127q-16 -17 -33 0q-17 16 0 33q65 65 92 116q39 72 39 170q0 156 -131 287q-17 16 0 33t33 0q145 -145 145 -320q0 -109 -44 -192z" />
    <glyph glyph-name="asterisk" unicode="*" horiz-adv-x="198" 
d="M98 415l-18 -15q-17 -15 -33 2q-15 18 2 34l11 9l-13 4q-23 7 -16 30q8 22 30 15l12 -4v13q0 24 24 24q23 0 23 -24v-14l14 5q22 7 30 -15q7 -23 -16 -30l-13 -4l11 -9q17 -16 2 -34q-16 -17 -33 -2z" />
    <glyph glyph-name="plus" unicode="+" horiz-adv-x="403" 
d="M226 228v-108q0 -24 -23 -24q-24 0 -24 24v108h-108q-23 0 -23 23q0 24 23 24h108v108q0 24 24 24q23 0 23 -24v-108h108q24 0 24 -24q0 -23 -24 -23h-108z" />
    <glyph glyph-name="comma" unicode="," horiz-adv-x="163" 
d="M113 -22q0 -47 -25 -71t-57 -23q-25 2 -24 26q1 25 26 25q12 0 19 8q11 10 11 35v45q0 25 25 25t25 -25v-45z" />
    <glyph glyph-name="hyphen" unicode="-" horiz-adv-x="404" 
d="M70 226q-24 0 -24 24q0 23 24 23h263q24 0 24 -23q0 -24 -24 -24h-263z" />
    <glyph glyph-name="period" unicode="." horiz-adv-x="163" 
d="M107 27q0 -25 -25 -25t-25 25v2q0 25 25 25t25 -25v-2z" />
    <glyph glyph-name="slash" unicode="/" horiz-adv-x="303" 
d="M198 489q6 23 29 16q23 -6 16 -29l-132 -461q-6 -22 -29 -16q-23 7 -16 29z" />
    <glyph glyph-name="zero" unicode="0" horiz-adv-x="496" 
d="M246 -9q-201 0 -201 261q0 133 64 202q54 58 137 58q78 0 127 -45q72 -65 72 -214q0 -262 -199 -262zM398 253q0 212 -152 212q-73 0 -113 -56t-40 -157q0 -128 48 -178q35 -36 105 -36q152 0 152 215z" />
    <glyph glyph-name="one" unicode="1" horiz-adv-x="251" 
d="M155 430l-82 -73q-17 -16 -33 2q-16 17 2 33l121 108q12 10 25 4q14 -6 14 -22v-461q0 -23 -23 -23q-24 0 -24 23v409z" />
    <glyph glyph-name="two" unicode="2" horiz-adv-x="448" 
d="M67 -3q-24 0 -24 23q0 90 54 144q32 32 112 69q89 42 117 79q20 27 20 59q0 22 -9 40q-27 55 -110 55q-72 0 -113 -56q-14 -19 -33 -5t-5 33q55 75 151 75q112 0 152 -81q14 -28 14 -60q0 -49 -30 -88q-23 -31 -62 -55q-23 -15 -72 -38q-66 -31 -91 -53q-40 -36 -46 -94
h302q23 0 23 -24q0 -23 -23 -23h-327z" />
    <glyph glyph-name="three" unicode="3" horiz-adv-x="461" 
d="M421 149q0 -52 -42 -98q-55 -59 -153 -59q-84 0 -136 39q-45 33 -56 84q-6 23 17 28t29 -17q20 -87 146 -87q74 0 116 42q32 32 32 68q0 50 -30 75q-41 35 -146 35q-24 0 -24 25q0 24 24 24q84 0 113 28q16 15 16 50q0 34 -23 56q-26 26 -78 26q-73 0 -96 -55
q-9 -21 -31 -12t-12 31q35 83 139 83q72 0 112 -40q36 -36 36 -89q0 -66 -51 -98q98 -35 98 -139z" />
    <glyph glyph-name="four" unicode="4" horiz-adv-x="422" 
d="M316 108v-87q0 -24 -24 -24q-23 0 -23 24v87h-211q-14 0 -21 12q-6 13 2 25l234 350q9 14 26 9t17 -22v-327h48q24 0 24 -24q0 -23 -24 -23h-48zM269 404l-167 -249h167v249z" />
    <glyph glyph-name="five" unicode="5" horiz-adv-x="441" 
d="M137 459l-21 -134q42 20 92 20q87 0 136.5 -47t49.5 -130q0 -73 -44 -121q-49 -56 -137 -56q-68 0 -114.5 30.5t-61.5 85.5q-6 22 16 28q23 7 29 -16q22 -81 131 -81q81 0 114 57q19 32 19 73q0 130 -138 130q-68 0 -107 -40q-12 -13 -27 -5q-16 8 -13 25l32 208
q3 20 23 20h225q23 0 23 -24q0 -23 -23 -23h-204z" />
    <glyph glyph-name="six" unicode="6" horiz-adv-x="476" 
d="M387 417q-18 -15 -33 3q-37 46 -108 46q-70 0 -110 -50.5t-44 -143.5q52 74 157 74q87 0 136 -47t49 -130q0 -59 -29 -104q-47 -72 -156 -72q-204 0 -204 260q0 133 64 202q54 59 137 59q93 0 145 -64q14 -19 -4 -33zM363 86q24 33 24 83q0 130 -138 130q-64 0 -102 -36
t-38 -96q0 -40 21 -73q36 -54 119 -54q79 0 114 46z" />
    <glyph glyph-name="seven" unicode="7" horiz-adv-x="387" 
d="M57 460q-24 0 -24 23q0 24 24 24h278q14 0 20 -13q7 -13 -1 -24q-68 -98 -116 -201q-31 -67 -55 -164q-10 -41 -18 -84q-1 -24 -25 -22q-22 2 -22 24v1q9 118 77 265q38 80 96 171h-234z" />
    <glyph glyph-name="eight" unicode="8" horiz-adv-x="479" 
d="M91 391q0 54 42 89t107 35q75 0 114 -40q33 -34 33 -83q0 -59 -48 -92q95 -43 95 -145q0 -65 -47 -111q-53 -52 -147 -52q-100 0 -152 51q-44 44 -44 110q0 98 96 144q-49 31 -49 94zM340 392q0 76 -100 76q-45 0 -73.5 -21.5t-28.5 -55.5q0 -70 102 -70q100 0 100 71z
M357 81q30 32 30 74q0 53 -40 85t-107 32q-65 0 -107 -33.5t-42 -85.5q0 -54 39 -84t110 -30q78 0 117 42z" />
    <glyph glyph-name="nine" unicode="9" horiz-adv-x="463" 
d="M105 86q38 -46 109 -46q73 0 113 55.5t40 157.5v0.5v0.5q-49 -68 -146 -68q-80 0 -128 45t-48 119q0 66 39 111q47 52 134 52q103 0 154 -82q43 -67 43 -178q0 -133 -64 -202q-54 -58 -137 -58q-94 0 -145 63q-15 19 3 34q19 14 33 -4zM351 352q-1 35 -28 68
q-38 46 -104 46q-73 0 -106 -45q-21 -30 -21 -71q0 -42 21 -71q32 -46 108 -46q59 0 95.5 33t34.5 86z" />
    <glyph glyph-name="colon" unicode=":" horiz-adv-x="163" 
d="M107 245q0 -25 -25 -25t-25 25v1q0 25 25 25t25 -25v-1zM107 85q0 -25 -25 -25t-25 25v1q0 25 25 25t25 -25v-1z" />
    <glyph glyph-name="semicolon" unicode=";" horiz-adv-x="163" 
d="M107 245q0 -25 -25 -25t-25 25v1q0 25 25 25t25 -25v-1zM107 -22q0 -47 -25 -71t-57 -23q-24 2 -24 26q1 25 26 25q12 0 19 8q11 10 11 35v45q0 25 25 25t25 -25v-45z" />
    <glyph glyph-name="less" unicode="&#x3c;" horiz-adv-x="337" 
d="M53 206q-15 6 -15 22t15 22l213 86q12 4 22.5 -3t10.5 -19q0 -16 -15 -22l-159 -64l159 -64q15 -6 15 -22q0 -12 -10.5 -19t-22.5 -3z" />
    <glyph glyph-name="equal" unicode="=" horiz-adv-x="405" 
d="M68 301q-24 0 -24 23q0 24 24 24h263q23 0 23 -24q0 -23 -23 -23h-263zM68 175q-24 0 -24 24q0 23 24 23h263q23 0 23 -23q0 -24 -23 -24h-263z" />
    <glyph glyph-name="greater" unicode="&#x3e;" horiz-adv-x="337" 
d="M290 250q15 -6 15 -22t-15 -22l-213 -86q-12 -4 -22.5 3t-10.5 19q0 16 15 22l159 64l-159 64q-15 6 -15 22q0 12 10.5 19t22.5 3z" />
    <glyph glyph-name="question" unicode="?" horiz-adv-x="406" 
d="M208 21q0 -23 -23 -23q-24 0 -24 23v10q0 24 24 24q23 0 23 -24v-10zM365 367q0 -55 -37 -96q-22 -24 -66 -53q-32 -22 -41 -34q-15 -18 -15 -49q0 -24 -23 -24q-24 0 -24 24q0 47 25 78q14 18 52.5 44t56.5 46q25 27 25 64q0 19 -8 38q-26 61 -111 61q-72 0 -112 -56
q-14 -19 -33 -5t-5 33q55 75 150 75q115 0 155 -90q11 -27 11 -56z" />
    <glyph glyph-name="at" unicode="@" horiz-adv-x="681" 
d="M482 108q0 -37 35 -37q24 0 41 24q25 36 25 99q0 131 -60 201.5t-173 70.5q-125 0 -189 -75q-60 -71 -60 -199q0 -145 59 -210t190 -65q77 0 140 36q20 12 32 -8q12 -21 -9 -32q-74 -43 -163 -43q-151 0 -223.5 78.5t-72.5 243.5q0 153 77.5 237t218.5 84
q134 0 207 -83.5t73 -235.5q0 -81 -33 -125.5t-80 -44.5q-46 0 -69 37q-41 -46 -112 -46q-131 0 -131 112q0 49 36.5 80t94.5 31q95 0 96 28q-5 33 -25 46t-63 13q-48 0 -81 -36q-16 -17 -33 -1t-2 33q47 51 116 51q138 0 138 -138v-126zM435 204q-33 -13 -99 -13
q-34 0 -56 -14q-28 -18 -28 -50q0 -65 84 -65q53 0 80 35q19 24 19 51v56z" />
    <glyph glyph-name="A" unicode="A" horiz-adv-x="430" 
d="M114 118l-38 -104q-7 -22 -30 -14q-22 8 -14 30l164 460q6 16 22 16q17 0 23 -16l164 -460q8 -22 -15 -30q-22 -8 -30 14l-37 104h-209zM218 412l-88 -247h176z" />
    <glyph glyph-name="B" unicode="B" horiz-adv-x="515" 
d="M79 -2q-23 0 -23 24v460q0 23 23 23h136q159 0 159 -119q0 -59 -32 -93q133 -25 133 -134q0 -59 -34 -99q-52 -62 -175 -62h-187zM241 300q86 0 86 86q0 34 -17 49q-26 23 -95 23h-112v-158h138zM266 46q162 0 162 113q0 92 -163 92h-162v-205h163z" />
    <glyph glyph-name="C" unicode="C" horiz-adv-x="515" 
d="M273 -8q-225 0 -225 260q0 123 60 192t165 69q120 0 177 -77q14 -19 -5 -33t-33 5q-43 58 -139 58q-86 0 -132 -55t-46 -159q0 -112 42.5 -162.5t135.5 -50.5q116 0 153 76q11 21 32 10q21 -10 11 -31q-51 -102 -196 -102z" />
    <glyph glyph-name="D" unicode="D" horiz-adv-x="560" 
d="M79 -1q-23 0 -23 23v461q0 23 23 23h186q121 0 187.5 -65.5t66.5 -186.5q0 -105 -54 -172q-67 -83 -200 -83h-186zM265 46q122 0 173 81q34 52 34 127q0 205 -207 205h-162v-413h162z" />
    <glyph glyph-name="E" unicode="E" horiz-adv-x="438" 
d="M80 -1q-24 0 -24 24v460q0 24 24 24h295q24 0 24 -24q0 -23 -24 -23h-271v-177h193q23 0 23 -23q0 -24 -23 -24h-193v-190h271q24 0 24 -23q0 -24 -24 -24h-295z" />
    <glyph glyph-name="F" unicode="F" horiz-adv-x="415" 
d="M105 236v-213q0 -24 -24 -24q-23 0 -23 24v460q0 24 23 24h273q24 0 24 -24q0 -23 -24 -23h-249v-177h171q23 0 23 -24q0 -23 -23 -23h-171z" />
    <glyph glyph-name="G" unicode="G" horiz-adv-x="525" 
d="M431 51q-57 -58 -156 -58q-111 0 -170 67t-59 193q0 127 72 198q63 63 157 63q113 0 171 -68q15 -18 -3 -33t-33 3q-44 51 -135 51q-73 0 -122 -48q-60 -57 -60 -166q0 -213 182 -213q74 0 117 36q39 34 39 87v69h-168q-24 0 -24 23q0 24 24 24h192q23 0 23 -24v-232
q0 -24 -23 -24q-24 0 -24 24v28z" />
    <glyph glyph-name="H" unicode="H" horiz-adv-x="453" 
d="M357 246h-255v-223q0 -24 -24 -24q-23 0 -23 24v460q0 24 23 24q24 0 24 -24v-190h255v190q0 24 23 24q24 0 24 -24v-460q0 -24 -24 -24q-23 0 -23 24v223z" />
    <glyph glyph-name="I" unicode="I" horiz-adv-x="214" 
d="M83 481q0 24 24 24q23 0 23 -24v-460q0 -24 -23 -24q-24 0 -24 24v460z" />
    <glyph glyph-name="J" unicode="J" horiz-adv-x="423" 
d="M326 459h-121q-23 0 -23 24q0 23 23 23h145q23 0 23 -23v-295q0 -89 -47.5 -142.5t-126.5 -53.5q-123 0 -160 91q-9 22 13 31t31 -13q25 -62 116 -62q59 0 93 40t34 109v271z" />
    <glyph glyph-name="K" unicode="K" horiz-adv-x="473" 
d="M233 237l-133 -227q-9 -15 -27 -11q-17 5 -17 23v460q0 24 23 24q24 0 24 -24v-374l227 387q12 20 33 8q20 -12 8 -32l-112 -190l181 -245q14 -19 -4 -33q-19 -14 -33 5z" />
    <glyph glyph-name="L" unicode="L" horiz-adv-x="467" 
d="M79 -2q-24 0 -24 24v460q0 24 24 24q23 0 23 -24v-437h304q24 0 24 -23q0 -24 -24 -24h-327z" />
    <glyph glyph-name="M" unicode="M" horiz-adv-x="517" 
d="M412 397l-134 -228q-7 -12 -21 -12q-13 0 -20 12l-136 228v-375q0 -24 -23 -24q-24 0 -24 24v460q0 18 18 23q17 5 26 -11l159 -267l159 268q9 15 26 11q17 -5 17 -23v-461q0 -23 -23 -23q-24 0 -24 23v375z" />
    <glyph glyph-name="N" unicode="N" horiz-adv-x="455" 
d="M101 403v-381q0 -24 -24 -24q-23 0 -23 24v460q0 18 17 23t26 -10l259 -394v381q0 24 23 24q24 0 24 -24v-460q0 -18 -17 -23t-27 10z" />
    <glyph glyph-name="O" unicode="O" horiz-adv-x="558" 
d="M282 -8q-234 0 -234 260q0 134 74 203q63 58 160 58q111 0 170 -67t59 -192q0 -262 -229 -262zM464 254q0 212 -182 212q-68 0 -115 -35q-72 -53 -72 -179q0 -110 45 -161.5t142 -51.5q182 0 182 215z" />
    <glyph glyph-name="P" unicode="P" horiz-adv-x="535" 
d="M101 162v-141q0 -23 -24 -23q-23 0 -23 23v461q0 23 23 23h209q123 0 175 -69q34 -45 34 -111q0 -67 -47 -111q-55 -52 -162 -52h-185zM286 209q76 0 119 31t43 85q0 133 -162 133h-185v-249h185z" />
    <glyph glyph-name="Q" unicode="Q" horiz-adv-x="558" 
d="M428 33q-55 -41 -148 -41q-233 0 -233 260q0 133 74 203q63 58 159 58q111 0 170.5 -67t59.5 -192q0 -123 -49 -187l57 -57q16 -17 0 -33q-7 -7 -17 -7t-17 7zM302 159q-6 6 -6 16q0 24 23 24q10 0 17 -7l91 -92q36 51 36 154q0 212 -183 212q-67 0 -114 -35
q-72 -53 -72 -179q0 -110 45 -161.5t141 -51.5q72 0 114 28z" />
    <glyph glyph-name="R" unicode="R" horiz-adv-x="535" 
d="M256 205h-156v-182q0 -24 -23 -24q-24 0 -24 24v460q0 24 24 24h208q123 0 175 -62q34 -40 34 -98q0 -47 -28 -81q-45 -52 -148 -59l146 -169q16 -18 -2 -33q-18 -16 -33 2zM285 253q162 0 162 94q0 113 -162 113h-185v-207h185z" />
    <glyph glyph-name="S" unicode="S" horiz-adv-x="496" 
d="M252 466q-142 0 -148 -76q-7 -94 156 -94q195 0 195 -129q0 -28 -10 -57q-18 -53 -71.5 -85.5t-126.5 -32.5q-152 0 -202 110q-10 21 11 31t31 -11q38 -83 160 -83q66 0 110 30q51 34 51 98q0 82 -148 82q-83 0 -135 24q-69 32 -69 101q0 66 56 103q53 36 140 36
q101 0 165 -64q17 -17 0 -33q-17 -17 -33 0q-51 50 -132 50z" />
    <glyph glyph-name="T" unicode="T" horiz-adv-x="515" 
d="M233 460h-182q-24 0 -24 24q0 23 24 23h412q23 0 23 -23q0 -24 -23 -24h-182v-437q0 -24 -24 -24t-24 24v437z" />
    <glyph glyph-name="U" unicode="U" horiz-adv-x="546" 
d="M448 481q0 24 23 24q24 0 24 -24v-269q0 -105 -58 -162.5t-163 -57.5q-220 0 -220 218v272q0 23 23 23q24 0 24 -23v-272q0 -89 41.5 -130t131.5 -41q174 0 174 173v269z" />
    <glyph glyph-name="V" unicode="V" horiz-adv-x="432" 
d="M32 474q-8 22 15 30q22 8 30 -14l141 -398l142 398q8 22 30 14q23 -8 15 -30l-164 -461q-6 -15 -23 -15q-16 0 -22 15z" />
    <glyph glyph-name="W" unicode="W" horiz-adv-x="544" 
d="M272 386l-92 -370q-4 -18 -23 -18q-18 1 -22 19l-105 461q-5 22 18 28q23 5 28 -18l83 -364l90 366q4 18 23 18q18 0 22 -18l92 -366l82 364q5 23 28 18t18 -28l-104 -461q-4 -18 -23 -18q-18 0 -23 18z" />
    <glyph glyph-name="X" unicode="X" horiz-adv-x="397" 
d="M200 213l-132 -204q-13 -20 -33 -7q-19 13 -7 32l144 222l-138 213q-13 20 7 33q19 13 32 -7l127 -196l127 196q12 20 32 7t7 -33l-138 -213l144 -222q12 -19 -7 -32q-20 -13 -33 7z" />
    <glyph glyph-name="Y" unicode="Y" horiz-adv-x="433" 
d="M194 180l-161 291q-11 20 10 32q20 11 31 -10l144 -259l143 259q12 21 32 10q21 -12 10 -32l-162 -294v-156q0 -24 -24 -24q-23 0 -23 24v159z" />
    <glyph glyph-name="Z" unicode="Z" horiz-adv-x="407" 
d="M47 -2q-23 0 -23 24q0 7 4 13l280 424h-255q-24 0 -24 23q0 24 24 24h299q24 0 24 -24q0 -7 -4 -13l-281 -423h265q24 0 24 -24t-24 -24h-309z" />
    <glyph glyph-name="bracketleft" unicode="[" horiz-adv-x="336" 
d="M91 -75q-24 0 -24 24v607q0 23 24 23h171q23 0 23 -23q0 -24 -23 -24h-147l-1 -560h161q24 0 24 -24q0 -23 -24 -23h-184z" />
    <glyph glyph-name="backslash" unicode="\" horiz-adv-x="303" 
d="M243 28q7 -22 -16 -29q-23 -6 -29 16l-132 461q-7 23 16 29q23 7 29 -16z" />
    <glyph glyph-name="bracketright" unicode="]" horiz-adv-x="336" 
d="M273 -51q0 -24 -23 -24h-185q-23 0 -23 23q0 24 23 24h161v560h-147q-24 0 -24 24q0 23 24 23h170q24 0 24 -23v-607z" />
    <glyph glyph-name="asciicircum" unicode="^" horiz-adv-x="435" 
d="M213 523l-77 -65q-18 -15 -33 3t3 33l92 78q15 13 30 0l92 -78q18 -15 3 -33q-16 -18 -34 -3z" />
    <glyph glyph-name="underscore" unicode="_" horiz-adv-x="404" 
d="M70 0q-24 0 -24 23q0 24 24 24h263q24 0 24 -24q0 -23 -24 -23h-263z" />
    <glyph glyph-name="grave" unicode="`" horiz-adv-x="434" 
d="M153 520q-22 9 -14 31t30 13l125 -47q22 -8 14 -30t-30 -14z" />
    <glyph glyph-name="a" unicode="a" horiz-adv-x="434" 
d="M320 34q-45 -43 -117 -43q-146 0 -146 125q0 55 41 89.5t105 34.5q120 0 115 37q-6 39 -30 54.5t-76 15.5q-56 0 -95 -42q-16 -17 -33 -1q-17 15 -1 33q52 58 129 58q155 0 155 -156v-220q0 -23 -23 -23q-24 0 -24 23v15zM320 211q-37 -18 -117 -18q-39 0 -66 -17
q-33 -21 -33 -60q0 -77 99 -77q59 0 92 34q25 28 25 60v78z" />
    <glyph glyph-name="b" unicode="b" horiz-adv-x="460" 
d="M107 22q0 -24 -24 -24q-23 0 -23 24v465q0 24 23 24q24 0 24 -24v-147q47 55 118 55q85 0 131 -52t46 -149q0 -105 -42.5 -153.5t-134.5 -48.5q-74 0 -118 51v-21zM326 73q29 35 29 121q0 154 -130 154q-49 0 -81 -37q-37 -42 -37 -116q0 -57 19 -96q29 -60 99 -60
q72 0 101 34z" />
    <glyph glyph-name="c" unicode="c" horiz-adv-x="440" 
d="M240 -9q-181 0 -181 202q0 96 47.5 148.5t133.5 52.5q101 0 145 -65q13 -19 -6 -32q-20 -14 -33 6q-30 44 -106 44q-134 0 -134 -154q0 -84 31 -119.5t103 -35.5q83 0 123 75q11 21 32 10t10 -32q-54 -100 -165 -100z" />
    <glyph glyph-name="d" unicode="d" horiz-adv-x="460" 
d="M402 22q0 -24 -24 -24q-23 0 -23 24v21q-44 -51 -118 -51q-92 0 -134.5 48.5t-42.5 153.5q0 97 45.5 149t131.5 52q71 0 118 -55v147q0 24 23 24q24 0 24 -24v-465zM237 39q69 0 99 60q19 39 19 96q0 74 -37 116q-33 37 -81 37q-130 0 -130 -154q0 -86 29 -120.5
t101 -34.5z" />
    <glyph glyph-name="e" unicode="e" horiz-adv-x="460" 
d="M115 121l-1 -1q22 -81 127 -81q92 0 124 82q9 22 31 14q22 -9 13 -31q-15 -38 -45 -66q-49 -46 -123 -46q-182 0 -182 202q0 96 47.5 148.5t134.5 52.5q56 0 106 -33q56 -37 56 -88q0 -15 -13 -22zM350 285q-30 63 -109 63q-135 0 -135 -154q0 -12 1 -25z" />
    <glyph glyph-name="f" unicode="f" horiz-adv-x="306" 
d="M103 352h-46q-24 0 -24 24q0 23 24 23h46v11q0 109 101 109q23 0 50.5 -11t31.5 -25q4 -12 -4.5 -19.5t-20.5 -7.5q-5 0 -20.5 8t-36.5 8q-29 0 -40 -14q-14 -17 -14 -48v-11h106q23 0 23 -23q0 -24 -23 -24h-106v-334q0 -23 -23 -23q-24 0 -24 23v334z" />
    <glyph glyph-name="g" unicode="g" horiz-adv-x="459" 
d="M352 48q-47 -55 -118 -55q-85 0 -131 52t-46 150q0 104 43 152.5t134 48.5q74 0 118 -51v22q0 24 24 24q23 0 23 -24v-403q0 -68 -40 -116q-45 -54 -125 -54q-109 0 -152 71q-13 20 8 33q20 12 32 -8q29 -49 112 -49q63 0 94 45q24 33 24 78v84zM315 77q37 42 37 117
q0 56 -19 95q-29 60 -99 60q-72 0 -101 -34.5t-29 -119.5q0 -155 130 -155q49 0 81 37z" />
    <glyph glyph-name="h" unicode="h" horiz-adv-x="459" 
d="M352 240q0 108 -117 108q-48 0 -85 -35q-46 -42 -46 -118v-174q0 -23 -23 -23q-24 0 -24 23v466q0 24 24 24q23 0 23 -24v-154q53 62 131 62q164 0 164 -155v-220q0 -24 -23 -24q-24 0 -24 24v220z" />
    <glyph glyph-name="i" unicode="i" horiz-adv-x="213" 
d="M82 370q0 24 24 24q23 0 23 -24v-347q0 -23 -23 -23q-24 0 -24 23v347zM129 498q0 -24 -23 -24q-24 0 -24 24v10q0 24 24 24q23 0 23 -24v-10z" />
    <glyph glyph-name="j" unicode="j" horiz-adv-x="204" 
d="M130 496q0 -24 -24 -24q-23 0 -23 24v10q0 24 23 24q24 0 24 -24v-10zM83 370q0 24 23 24q24 0 24 -24v-433q0 -142 -118 -142q-23 0 -23 23q0 24 23 24q38 0 53 17q18 21 18 78v433z" />
    <glyph glyph-name="k" unicode="k" horiz-adv-x="429" 
d="M214 165l-115 -158q-10 -13 -26 -8t-16 22v466q0 23 23 23q24 0 24 -23v-393l208 287q14 19 33 5t5 -33l-108 -148l131 -169q14 -19 -4 -33q-19 -15 -33 4z" />
    <glyph glyph-name="l" unicode="l" horiz-adv-x="213" 
d="M84 487q0 23 23 23q24 0 24 -23v-466q0 -23 -24 -23q-23 0 -23 23v466z" />
    <glyph glyph-name="m" unicode="m" horiz-adv-x="653" 
d="M550 241q0 108 -90 108q-34 0 -69 -36q-40 -43 -40 -106v-186q0 -23 -24 -23q-23 0 -23 23v220q0 108 -91 108q-36 0 -69 -36q-40 -44 -40 -117v-173q0 -24 -23 -24q-24 0 -24 24v345q0 23 24 23q23 0 23 -23v-29q48 57 109 57q92 0 124 -76q48 76 123 76q65 0 101 -40.5
t36 -114.5v-220q0 -23 -24 -23q-23 0 -23 23v220z" />
    <glyph glyph-name="n" unicode="n" horiz-adv-x="459" 
d="M351 240q0 108 -117 108q-48 0 -85 -34q-46 -43 -46 -119v-173q0 -24 -23 -24q-24 0 -24 24v345q0 23 24 23q23 0 23 -23v-34q53 62 131 62q164 0 164 -155v-220q0 -23 -23 -23q-24 0 -24 23v220z" />
    <glyph glyph-name="o" unicode="o" horiz-adv-x="469" 
d="M236 -6q-181 0 -181 201q0 96 47.5 149t133.5 53q179 0 179 -201q0 -202 -179 -202zM338 76q30 35 30 120q0 81 -31.5 117.5t-100.5 36.5q-134 0 -134 -155q0 -83 31 -118.5t103 -35.5t102 35z" />
    <glyph glyph-name="p" unicode="p" 
d="M56 366q0 24 23 24q24 0 24 -24v-21q44 51 118 51q92 0 134.5 -48.5t42.5 -153.5q0 -97 -46 -149t-131 -52q-71 0 -118 55v-191q0 -24 -24 -24q-23 0 -23 24v509zM351 194q0 86 -29 120.5t-101 34.5q-70 0 -99 -60q-19 -39 -19 -96q0 -74 37 -116q32 -37 81 -37
q130 0 130 154z" />
    <glyph glyph-name="q" unicode="q" 
d="M398 -143q0 -24 -24 -24q-23 0 -23 24v191q-47 -55 -118 -55q-86 0 -131.5 52t-45.5 149q0 105 42.5 153.5t134.5 48.5q74 0 118 -51v21q0 24 23 24q24 0 24 -24v-509zM233 40q48 0 81 37q37 42 37 116q0 57 -19 96q-30 60 -99 60q-72 0 -101 -34.5t-29 -120.5
q0 -154 130 -154z" />
    <glyph glyph-name="r" unicode="r" horiz-adv-x="386" 
d="M57 368q0 23 23 23q24 0 24 -23v-30q49 58 115 58q83 0 123 -61q13 -19 -7 -32q-19 -13 -32 6q-27 40 -84 40q-41 0 -75 -36q-40 -43 -40 -117v-173q0 -24 -24 -24q-23 0 -23 24v345z" />
    <glyph glyph-name="s" unicode="s" horiz-adv-x="443" 
d="M344 35q-51 -41 -132 -41q-99 0 -150 58q-16 17 2 33q17 16 33 -2q38 -42 115 -42q64 0 101 29q29 23 29 53q0 27 -15 39q-26 22 -104 22q-100 0 -137 39q-25 27 -23 73q3 47 42.5 74t106.5 27q72 0 128 -41q19 -14 6 -33q-14 -19 -33 -5q-44 31 -101 31q-99 0 -102 -55
q-1 -27 10 -39q23 -24 103 -24q166 0 166 -108q0 -51 -45 -88z" />
    <glyph glyph-name="t" unicode="t" horiz-adv-x="288" 
d="M111 353h-54q-23 0 -23 24q0 23 23 23h54v67q0 23 23 23q24 0 24 -23v-67h76q24 0 24 -23q0 -24 -24 -24h-76v-332q0 -23 -24 -23q-23 0 -23 23v332z" />
    <glyph glyph-name="u" unicode="u" 
d="M350 56q-53 -62 -131 -62q-164 0 -164 155v220q0 23 24 23q23 0 23 -23v-220q0 -108 117 -108q48 0 85 34q46 43 46 119v173q0 24 24 24q23 0 23 -24v-344q0 -24 -23 -24q-24 0 -24 24v33z" />
    <glyph glyph-name="v" unicode="v" horiz-adv-x="391" 
d="M34 359q-9 21 13 30t30 -13l120 -294l117 294q8 22 30 13q22 -8 13 -30l-138 -349q-6 -15 -22 -15t-22 15z" />
    <glyph glyph-name="w" unicode="w" horiz-adv-x="553" 
d="M278 298l-103 -287q-6 -16 -23 -16q-17 1 -22 17l-98 349q-6 23 17 29q22 7 29 -16l77 -278l100 280q6 15 23 15q16 0 22 -15l100 -280l77 278q7 23 29 16q23 -6 17 -29l-98 -349q-5 -16 -22 -17q-17 0 -23 16z" />
    <glyph glyph-name="x" unicode="x" horiz-adv-x="365" 
d="M182 152l-105 -147q-14 -19 -33 -5t-5 33l114 159l-117 162q-14 19 5 33t33 -5l108 -149l107 149q14 19 33 5t5 -33l-116 -161l117 -160q13 -19 -6 -33t-32 5z" />
    <glyph glyph-name="y" unicode="y" horiz-adv-x="385" 
d="M172 14l-139 344q-9 22 13 31q21 9 30 -13l121 -298l114 297q9 22 31 14q22 -9 13 -31l-167 -435q-39 -101 -109 -101q-24 0 -52 11q-22 8 -14 30q9 22 31 14q20 -8 34 -8q39 0 66 71z" />
    <glyph glyph-name="z" unicode="z" horiz-adv-x="381" 
d="M58 -4q-24 0 -24 23q0 8 5 14l228 309h-198q-24 0 -24 24q0 23 24 23h244q24 0 24 -23q0 -8 -5 -14l-228 -309h220q24 0 24 -24q0 -23 -24 -23h-266z" />
    <glyph glyph-name="braceleft" unicode="{" horiz-adv-x="375" 
d="M87 276q17 0 34 16q27 27 27 90q0 82 50 136q41 45 105 61h1q11 3 20 -4.5t9 -18.5q0 -18 -16 -22l-3 -1q-118 -32 -118 -151q0 -89 -47 -128q47 -38 47 -130q0 -81 54 -122q29 -23 63 -29q20 -3 20 -23q0 -11 -8 -18t-19 -5q-42 7 -81 35q-77 56 -77 162q0 69 -29 93
q-12 10 -29 12h-9.5h-11.5q-25 0 -25 23q0 24 24 24h19z" />
    <glyph glyph-name="bar" unicode="|" horiz-adv-x="181" 
d="M68 560q0 23 24 23q23 0 23 -23v-611q0 -24 -23 -24q-24 0 -24 24v611z" />
    <glyph glyph-name="braceright" unicode="}" horiz-adv-x="375" 
d="M314 276q24 0 24 -24q0 -23 -24 -23h-12.5h-9.5q-16 -2 -29 -12q-29 -24 -29 -93q0 -106 -76 -162q-40 -28 -81 -35q-11 -2 -19.5 5t-8.5 18q0 20 20 23q34 6 63 29q55 41 55 122q0 92 47 130q-47 39 -47 128q0 119 -119 151l-2 1q-17 4 -17 22q0 11 9 18.5t21 4.5
q64 -16 106 -61q49 -54 49 -136q0 -63 27 -90q17 -16 34 -16h19z" />
    <glyph glyph-name="asciitilde" unicode="~" horiz-adv-x="434" 
d="M336 476q-23 -19 -54 -19q-28 0 -76 26q-39 21 -54 21q-20 0 -28.5 -14.5t-21.5 -14.5q-23 0 -23 23q0 24 22 38.5t51 14.5q27 0 76 -27q38 -20 54 -20q30 0 35 19t20 21q10 1 16.5 -6.5t6.5 -16.5q0 -26 -24 -45z" />
    <glyph glyph-name="uni00A0" unicode="&#xa0;" horiz-adv-x="226" 
 />
    <glyph glyph-name="exclamdown" unicode="&#xa1;" horiz-adv-x="181" 
d="M68 370q0 23 23 23q24 0 24 -23v-347q0 -24 -24 -24q-23 0 -23 24v347zM115 473q0 -24 -24 -24q-23 0 -23 24v10q0 24 23 24q24 0 24 -24v-10z" />
    <glyph glyph-name="cent" unicode="&#xa2;" horiz-adv-x="440" 
d="M184 -43q-7 -22 -29 -16q-23 7 -17 29l11 38q-92 40 -92 186q0 96 47.5 149t134.5 53q10 0 21 -1l10 36q7 23 30 16q22 -6 16 -29l-9 -32q49 -15 76 -55q14 -19 -6 -33q-19 -13 -32 7q-18 26 -51 36l-86 -299q14 -2 31 -2q82 0 123 75q11 21 32 10q20 -11 9 -32
q-53 -100 -164 -100q-24 0 -44 3zM247 349h-8q-135 0 -135 -155q0 -110 59 -140z" />
    <glyph glyph-name="sterling" unicode="&#xa3;" horiz-adv-x="439" 
d="M76 -1q-18 0 -23 18q-4 17 11 26q32 19 32 70v123h-45q-23 0 -23 23q0 24 23 24h45v52q0 78 44 128.5t111 50.5q47 0 86 -23q44 -26 57 -71q6 -23 -16 -29q-23 -7 -29 16q-9 31 -44 47q-26 12 -54 12q-47 0 -77 -36.5t-30 -94.5v-52h161q23 0 23 -24q0 -23 -23 -23h-161
v-123q0 -37 -16 -67h247q23 0 23 -23q0 -24 -23 -24h-299z" />
    <glyph glyph-name="currency" unicode="&#xa4;" horiz-adv-x="593" 
d="M172 190q22 -151 182 -151q113 0 156 82q11 21 32 10q20 -11 10 -32q-56 -107 -198 -107q-203 0 -230 198h-72q-24 0 -24 23q0 24 24 24h69q-1 8 -1 16q0 23 3 46h-36q-24 0 -24 23q0 24 24 24h45q23 85 89 129q57 38 133 38q51 0 92 -15q22 -8 14 -30t-30 -14
q-33 12 -76 12q-135 0 -173 -120h203q23 0 23 -24q0 -23 -23 -23h-214q-3 -22 -3 -46q0 -8 1 -16h180q24 0 24 -24q0 -23 -24 -23h-176z" />
    <glyph glyph-name="yen" unicode="&#xa5;" horiz-adv-x="435" 
d="M244 138v-117q0 -24 -24 -24q-23 0 -23 24v117h-123q-24 0 -24 23q0 24 24 24h120l-44 80h-98q-24 0 -24 23q0 24 24 24h72l-88 159q-11 20 9 31q21 12 32 -9l144 -260l143 260q12 21 32 9q21 -11 10 -31l-88 -159h75q24 0 24 -24q0 -23 -24 -23h-101l-44 -80h123
q24 0 24 -24q0 -23 -24 -23h-127z" />
    <glyph glyph-name="brokenbar" unicode="&#xa6;" horiz-adv-x="181" 
d="M68 560q0 23 24 23q23 0 23 -23v-241q0 -24 -23 -24q-24 0 -24 24v241zM68 200q0 23 24 23q23 0 23 -23v-251q0 -24 -23 -24q-24 0 -24 24v251z" />
    <glyph glyph-name="section" unicode="&#xa7;" horiz-adv-x="420" 
d="M46 404q0 9 1 20q7 40 44.5 64t93.5 24q72 0 128 -40q19 -14 6 -33q-14 -19 -33 -5q-44 31 -101 31q-92 0 -92 -62q0 -42 94 -65q82 -20 122 -45q53 -33 53 -88q0 -69 -79 -103q80 -31 80 -96q0 -9 -2 -20q-6 -39 -44 -63.5t-93 -24.5q-72 0 -129 40q-19 14 -5 33t33 6
q44 -32 101 -32q92 0 92 62q0 43 -95 65q-82 20 -121 45q-53 34 -53 88q0 69 78 103q-79 32 -79 96zM315 205q0 45 -90 74q-131 -4 -131 -74q0 -45 89 -73q132 7 132 73z" />
    <glyph glyph-name="dieresis" unicode="&#xa8;" horiz-adv-x="460" 
d="M161 479q-34 0 -34 35q0 36 34 36t34 -35q0 -36 -34 -36zM316 479q-35 0 -35 35q0 36 35 36q34 0 34 -35q0 -36 -34 -36z" />
    <glyph glyph-name="copyright" unicode="&#xa9;" horiz-adv-x="585" 
d="M296 -21q-246 0 -246 275q0 141 78 213q66 62 168 62q117 0 179.5 -70.5t62.5 -202.5q0 -277 -242 -277zM491 256q0 226 -195 226q-72 0 -122 -37q-77 -57 -77 -191q0 -228 199 -228q195 0 195 230zM298 92q-141 0 -141 162q0 76 37.5 119t103.5 43q75 0 111 -49
q14 -19 -5 -33t-33 5q-22 30 -73 30q-94 0 -94 -115q0 -67 26 -93q21 -22 68 -22q61 0 81 39q10 21 31 11q21 -11 11 -32q-32 -65 -123 -65z" />
    <glyph glyph-name="ordfeminine" unicode="&#xaa;" horiz-adv-x="416" 
d="M70 2q-24 0 -24 23q0 24 24 24h273q24 0 24 -24q0 -23 -24 -23h-273zM320 134q-45 -43 -117 -43q-146 0 -146 125q0 55 41 89.5t105 34.5q120 0 115 37q-6 39 -30 54.5t-76 15.5q-56 0 -95 -42q-16 -17 -33 -1q-17 15 -1 33q52 58 129 58q155 0 155 -156v-220
q0 -23 -23 -23q-24 0 -24 23v15zM320 311q-37 -18 -117 -18q-39 0 -66 -17q-33 -21 -33 -60q0 -77 99 -77q59 0 92 34q25 28 25 60v78z" />
    <glyph glyph-name="guillemotleft" unicode="&#xab;" horiz-adv-x="399" 
d="M46 209q-10 7 -10 20q0 12 10 19l127 86q12 8 25 1q12 -7 12 -20t-10 -20l-99 -66l99 -67q10 -7 10 -19q0 -14 -12 -21q-13 -7 -25 1zM196 209q-10 7 -10 20q0 12 10 19l127 86q12 8 25 1q12 -7 12 -20t-10 -20l-99 -66l99 -67q10 -7 10 -19q0 -14 -12 -21q-13 -7 -25 1z
" />
    <glyph glyph-name="logicalnot" unicode="&#xac;" horiz-adv-x="385" 
d="M298 228h-250q-23 0 -23 23q0 24 23 24h273q24 0 24 -24v-154q0 -24 -24 -24q-23 0 -23 24v131z" />
    <glyph glyph-name="registered" unicode="&#xae;" horiz-adv-x="585" 
d="M296 -22q-246 0 -246 275q0 140 78 213q66 62 168 62q117 0 179.5 -70.5t62.5 -202.5q0 -277 -242 -277zM491 255q0 226 -195 226q-72 0 -122 -37q-77 -57 -77 -191q0 -228 199 -228q195 0 195 230zM295 215h-77v-97q0 -23 -24 -23q-23 0 -23 23v269q0 23 23 23h122
q79 0 112 -42q20 -26 20 -61q0 -75 -93 -89l73 -85q15 -17 -3 -33q-17 -15 -33 3zM316 262q85 0 85 45q0 56 -85 56h-98v-101h98z" />
    <glyph glyph-name="macron" unicode="&#xaf;" horiz-adv-x="500" 
 />
    <glyph glyph-name="degree" unicode="&#xb0;" horiz-adv-x="248" 
d="M127 361q-38 0 -60 22t-22 61q0 36 23 59.5t59 23.5q37 0 59.5 -22.5t22.5 -60.5t-22 -60.5t-60 -22.5zM162 444q0 36 -35 36t-35 -36t35 -36t35 36z" />
    <glyph glyph-name="plusminus" unicode="&#xb1;" horiz-adv-x="404" 
d="M70 2q-24 0 -24 23q0 24 24 24h263q24 0 24 -24q0 -23 -24 -23h-263zM226 228v-108q0 -24 -23 -24q-24 0 -24 24v108h-108q-23 0 -23 23q0 24 23 24h108v108q0 24 24 24q23 0 23 -24v-108h108q24 0 24 -24q0 -23 -24 -23h-108z" />
    <glyph glyph-name="uni00B2" unicode="&#xb2;" horiz-adv-x="712" 
d="M60 156q-23 0 -23 24q0 61 37 99q22 22 76.5 48t71.5 48q12 15 12 34q0 53 -70 53q-43 0 -67 -33q-14 -19 -33 -5t-5 33q39 52 105 52q78 0 107 -57q10 -20 10 -43q0 -35 -21 -62q-16 -21 -42 -38q-16 -10 -49 -25q-40 -19 -54 -31q-24 -20 -29 -49h187q23 0 23 -24
t-23 -24h-213z" />
    <glyph glyph-name="uni00B3" unicode="&#xb3;" horiz-adv-x="739" 
d="M267 421v-8q0 -30 -17 -49q48 -26 48 -93q0 -40 -33 -73q-38 -38 -102 -38q-58 0 -95 28q-30 23 -39 59q-5 23 18 28t28 -18q12 -49 88 -49q47 0 71 26q17 18 17 37q0 33 -15 45q-19 18 -79 18q-21 0 -23 21v1q0 26 23 26q64 0 63 37v6q-1 45 -57 45q-42 0 -55 -30
q-10 -22 -31 -13q-22 9 -13 31q25 59 99 59q50 0 78 -29q25 -25 26 -63v-4z" />
    <glyph glyph-name="acute" unicode="&#xb4;" horiz-adv-x="434" 
d="M267 564q22 9 30 -13q9 -22 -14 -31l-124 -47q-22 -8 -31 14q-8 22 14 30z" />
    <glyph glyph-name="uni00B5" unicode="&#xb5;" 
d="M349 55q-53 -62 -131 -62q-75 0 -117 36v-206q0 -23 -24 -23q-23 0 -23 23v545q0 24 23 24q24 0 24 -24v-220q0 -108 117 -108q48 0 85 34q46 43 46 119v173q0 24 23 24q24 0 24 -24v-344q0 -24 -24 -24q-23 0 -23 24v33z" />
    <glyph glyph-name="uni00B5" unicode="&#x3bc;" 
d="M349 55q-53 -62 -131 -62q-75 0 -117 36v-206q0 -23 -24 -23q-23 0 -23 23v545q0 24 23 24q24 0 24 -24v-220q0 -108 117 -108q48 0 85 34q46 43 46 119v173q0 24 23 24q24 0 24 -24v-344q0 -24 -24 -24q-23 0 -23 24v33z" />
    <glyph glyph-name="paragraph" unicode="&#xb6;" horiz-adv-x="492" 
d="M400 162h-129v-140q0 -24 -23 -24q-24 0 -24 24v142q-87 9 -132 59q-38 42 -38 103q0 65 34 110q52 70 175 70h160q24 0 24 -24v-460q0 -24 -24 -24q-23 0 -23 24v140zM224 457q-123 -16 -123 -131q0 -98 123 -114v245zM400 459h-129v-250h129v250z" />
    <glyph glyph-name="periodcentered" unicode="&#xb7;" horiz-adv-x="163" 
d="M107 227q0 -25 -25 -25t-25 25v2q0 25 25 25t25 -25v-2z" />
    <glyph glyph-name="cedilla" unicode="&#xb8;" horiz-adv-x="442" 
d="M212 14q4 23 27 19q20 -3 20 -23v-3l-6 -41q10 2 20 2q42 0 66 -23.5t24 -63.5q0 -35 -21 -59q-24 -27 -67 -27q-23 0 -23 23q0 24 23 24q41 0 41 39q0 40 -43 40q-15 0 -34 -13q-15 -10 -27 -5q-15 8 -13 25z" />
    <glyph glyph-name="uni00B9" unicode="&#xb9;" horiz-adv-x="714" 
d="M110 436l-40 -35q-17 -16 -33 1q-15 18 2 34l79 70q11 10 25 4t14 -22v-300q0 -23 -23 -23q-24 0 -24 23v248z" />
    <glyph glyph-name="ordmasculine" unicode="&#xba;" horiz-adv-x="456" 
d="M70 2q-24 0 -24 23q0 24 24 24h322q24 0 24 -24q0 -23 -24 -23h-322zM236 94q-181 0 -181 201q0 96 47.5 149t133.5 53q179 0 179 -201q0 -202 -179 -202zM338 176q30 35 30 120q0 81 -31.5 117.5t-100.5 36.5q-134 0 -134 -155q0 -83 31 -118.5t103 -35.5t102 35z" />
    <glyph glyph-name="guillemotright" unicode="&#xbb;" horiz-adv-x="399" 
d="M350 248q10 -7 10 -19q0 -13 -10 -20l-128 -86q-12 -8 -24 -1t-12 21q0 12 10 19l98 67l-98 66q-10 7 -10 20t12 20t24 -1zM200 248q10 -7 10 -19q0 -13 -10 -20l-128 -86q-12 -8 -24 -1t-12 21q0 12 10 19l98 67l-98 66q-10 7 -10 20t12 20t24 -1z" />
    <glyph glyph-name="onequarter" unicode="&#xbc;" horiz-adv-x="629" 
d="M437 496q13 20 33 7q19 -13 6 -33l-308 -461q-13 -20 -33 -6q-19 13 -6 32zM552 70v-49q0 -23 -23 -23q-24 0 -24 23v49h-129q-14 0 -20 12q-7 13 1 24l152 229q10 14 27 9q16 -5 16 -23v-204h24q23 0 23 -24q0 -23 -23 -23h-24zM505 244l-84 -127h84v127zM110 436
l-40 -35q-17 -16 -33 1q-15 18 2 34l79 70q11 10 25 4t14 -22v-300q0 -23 -23 -23q-24 0 -24 23v248z" />
    <glyph glyph-name="onehalf" unicode="&#xbd;" horiz-adv-x="712" 
d="M112 435l-40 -35q-18 -16 -33 1q-16 18 2 34l79 70q11 10 25 4t14 -22v-300q0 -23 -24 -23q-23 0 -23 23v248zM444 -3q-23 0 -23 23q0 62 37 99q22 22 76.5 48t71.5 48q12 15 12 34q0 53 -70 53q-42 0 -66 -33q-14 -19 -33 -5t-5 33q38 52 104 52q79 0 107 -57
q10 -20 10 -43q0 -34 -21 -62q-16 -21 -42 -38q-15 -9 -48 -25q-40 -19 -55 -31q-23 -19 -29 -49h187q24 0 24 -24q0 -23 -24 -23h-213zM440 496q14 19 33 6q20 -13 7 -33l-308 -460q-14 -20 -33 -7q-20 13 -7 33z" />
    <glyph glyph-name="threequarters" unicode="&#xbe;" horiz-adv-x="739" 
d="M547 496q13 20 33 7q19 -13 6 -33l-308 -461q-13 -20 -33 -6q-19 13 -6 32zM267 421v-8q0 -30 -17 -49q48 -26 48 -93q0 -40 -33 -73q-38 -38 -102 -38q-58 0 -95 28q-30 23 -39 59q-5 23 18 28t28 -18q12 -49 88 -49q47 0 71 26q17 18 17 37q0 33 -15 45q-19 18 -79 18
q-21 0 -23 21v1q0 26 23 26q64 0 63 37v6q-1 45 -57 45q-42 0 -55 -30q-10 -22 -31 -13q-22 9 -13 31q25 59 99 59q50 0 78 -29q25 -25 26 -63v-4zM662 70v-49q0 -23 -23 -23q-24 0 -24 23v49h-129q-14 0 -20 12q-7 13 1 24l152 229q10 14 27 9q16 -5 16 -23v-204h24
q23 0 23 -24q0 -23 -23 -23h-24zM615 244l-84 -127h84v127z" />
    <glyph glyph-name="questiondown" unicode="&#xbf;" horiz-adv-x="406" 
d="M241 475q0 -24 -23 -24q-24 0 -24 24v10q0 23 24 23q23 0 23 -23v-10zM203 -7q-115 0 -154 90q-12 27 -12 56q0 55 38 96q22 24 65 53q32 22 42 34q14 18 14 49q0 24 24 24q23 0 23 -24q0 -47 -24 -78q-15 -18 -53 -44t-57 -46q-25 -27 -25 -64q0 -19 8 -38
q27 -61 111 -61q72 0 113 56q14 19 33 5q18 -14 5 -33q-55 -75 -151 -75z" />
    <glyph glyph-name="Agrave" unicode="&#xc0;" horiz-adv-x="430" 
d="M323 118h-209l-38 -104q-7 -22 -30 -14q-22 8 -14 30l164 460q6 16 22 16q17 0 23 -16l164 -460q8 -22 -15 -30q-22 -8 -30 14zM218 412l-88 -247h176zM175 620q-22 9 -13 31q8 22 30 13l125 -47q22 -8 14 -30q-9 -22 -31 -14z" />
    <glyph glyph-name="Aacute" unicode="&#xc1;" horiz-adv-x="430" 
d="M360 14q8 -22 30 -14q23 8 15 30l-164 460q-6 16 -23 16q-16 0 -22 -16l-164 -460q-8 -22 14 -30q23 -8 30 14l38 104h209zM306 165h-176l88 247zM277 664q22 9 30 -13q9 -22 -14 -31l-124 -47q-22 -8 -31 14q-8 22 14 30z" />
    <glyph glyph-name="Acircumflex" unicode="&#xc2;" horiz-adv-x="430" 
d="M323 118h-209l-38 -104q-7 -22 -30 -14q-22 8 -14 30l164 460q6 16 22 16q17 0 23 -16l164 -460q8 -22 -15 -30q-22 -8 -30 14zM218 412l-88 -247h176zM218 623l-76 -65q-18 -15 -34 3q-15 18 3 33l92 78q15 13 30 0l92 -78q18 -15 3 -33t-33 -3z" />
    <glyph glyph-name="Atilde" unicode="&#xc3;" horiz-adv-x="430" 
d="M114 118l-38 -104q-7 -22 -30 -14q-22 8 -14 30l164 460q6 16 22 16q17 0 23 -16l164 -460q8 -22 -15 -30q-22 -8 -30 14l-37 104h-209zM218 412l-88 -247h176zM336 586q-23 -19 -54 -19q-28 0 -76 26q-39 21 -54 21q-20 0 -28.5 -14.5t-21.5 -14.5q-23 0 -23 23
q0 24 22 38.5t51 14.5q27 0 76 -27q38 -20 54 -20q30 0 35 19t20 21q10 1 16.5 -6.5t6.5 -16.5q0 -26 -24 -45z" />
    <glyph glyph-name="Adieresis" unicode="&#xc4;" horiz-adv-x="430" 
d="M323 118h-209l-38 -104q-7 -22 -30 -14q-22 8 -14 30l164 460q6 16 22 16q17 0 23 -16l164 -460q8 -22 -15 -30q-22 -8 -30 14zM218 412l-88 -247h176zM137 579q-34 0 -34 35q0 36 34 36t34 -35q0 -36 -34 -36zM292 579q-35 0 -35 35q0 36 35 36q34 0 34 -35
q0 -36 -34 -36z" />
    <glyph glyph-name="Aring" unicode="&#xc5;" horiz-adv-x="430" 
d="M323 118h-209l-38 -104q-7 -22 -30 -14q-22 8 -14 30l164 460q6 16 22 16q17 0 23 -16l164 -460q8 -22 -15 -30q-22 -8 -30 14zM218 412l-88 -247h176zM218 519q-38 0 -60.5 23t-22.5 61q0 37 23.5 60.5t59.5 23.5q37 0 59.5 -22.5t22.5 -60.5q0 -85 -82 -85zM261 604
q0 44 -43 44q-44 0 -44 -45t44 -45q43 0 43 46z" />
    <glyph glyph-name="AE" unicode="&#xc6;" horiz-adv-x="740" 
d="M383 0q-24 0 -24 23v96h-231l-40 -105q-9 -22 -31 -14q-22 9 -13 31l178 460q6 15 22 15q16 1 22 -14l93 -233v225q0 23 24 23h295q23 0 23 -23q0 -24 -23 -24h-272v-177h193q24 0 24 -23q0 -24 -24 -24h-193v-189h272q23 0 23 -24q0 -23 -23 -23h-295zM244 419l-97 -253
h199z" />
    <glyph glyph-name="Ccedilla" unicode="&#xc7;" horiz-adv-x="516" 
d="M247 -6q-199 14 -199 259q0 122 60 191.5t165 69.5q120 0 177 -78q14 -19 -5 -33t-33 5q-43 58 -139 58q-86 0 -132 -55t-46 -158q0 -112 42.5 -162.5t135.5 -50.5q116 0 153 75q11 21 32 11q21 -11 11 -32q-46 -93 -174 -101l-4 -27q10 2 20 2q42 0 66 -23.5t24 -63.5
q0 -34 -21 -59q-25 -27 -67 -27q-23 0 -23 23q0 24 23 24q41 0 41 39q0 40 -43 40q-15 0 -34 -13q-15 -10 -27 -4q-15 7 -13 24z" />
    <glyph glyph-name="Egrave" unicode="&#xc8;" horiz-adv-x="438" 
d="M80 -1q-24 0 -24 24v460q0 24 24 24h295q24 0 24 -24q0 -23 -24 -23h-271v-177h193q23 0 23 -23q0 -24 -23 -24h-193v-190h271q24 0 24 -23q0 -24 -24 -24h-295zM153 620q-22 9 -14 31t30 13l125 -47q22 -8 14 -30t-30 -14z" />
    <glyph glyph-name="Eacute" unicode="&#xc9;" horiz-adv-x="438" 
d="M375 -1q24 0 24 24q0 23 -24 23h-271v190h193q23 0 23 24q0 23 -23 23h-193v177h271q24 0 24 23q0 24 -24 24h-295q-24 0 -24 -24v-460q0 -24 24 -24h295zM277 664q22 9 30 -13q9 -22 -14 -31l-124 -47q-22 -8 -31 14q-8 22 14 30z" />
    <glyph glyph-name="Ecircumflex" unicode="&#xca;" horiz-adv-x="438" 
d="M80 -1q-24 0 -24 24v460q0 24 24 24h295q24 0 24 -24q0 -23 -24 -23h-271v-177h193q23 0 23 -23q0 -24 -23 -24h-193v-190h271q24 0 24 -23q0 -24 -24 -24h-295zM226 623l-76 -65q-18 -15 -33 3q-16 18 2 33l92 78q15 13 31 0l91 -78q18 -15 3 -33t-33 -3z" />
    <glyph glyph-name="Edieresis" unicode="&#xcb;" horiz-adv-x="438" 
d="M80 -1q-24 0 -24 24v460q0 24 24 24h295q24 0 24 -24q0 -23 -24 -23h-271v-177h193q23 0 23 -23q0 -24 -23 -24h-193v-190h271q24 0 24 -23q0 -24 -24 -24h-295zM146 579q-35 0 -35 35q0 36 35 36q33 0 33 -35q0 -36 -33 -36zM300 579q-34 0 -34 35q0 36 34 36t34 -35
q0 -36 -34 -36z" />
    <glyph glyph-name="Igrave" unicode="&#xcc;" horiz-adv-x="214" 
d="M83 481q0 24 24 24q23 0 23 -24v-460q0 -24 -23 -24q-24 0 -24 24v460zM53 620q-22 9 -14 31t30 13l125 -47q22 -8 14 -30t-30 -14z" />
    <glyph glyph-name="Iacute" unicode="&#xcd;" horiz-adv-x="214" 
d="M83 21q0 -24 24 -24q23 0 23 24v460q0 24 -23 24q-24 0 -24 -24v-460zM158 664q22 9 30 -13t-14 -31l-125 -47q-22 -8 -30 14t14 30z" />
    <glyph glyph-name="Icircumflex" unicode="&#xce;" horiz-adv-x="214" 
d="M83 481q0 24 24 24q23 0 23 -24v-460q0 -24 -23 -24q-24 0 -24 24v460zM108 623l-77 -65q-18 -15 -33 3t3 33l91 78q16 13 31 0l92 -78q18 -15 2 -33q-15 -18 -33 -3z" />
    <glyph glyph-name="Idieresis" unicode="&#xcf;" horiz-adv-x="214" 
d="M83 481q0 24 24 24q23 0 23 -24v-460q0 -24 -23 -24q-24 0 -24 24v460zM30 579q-34 0 -34 36q0 35 34 35t34 -35q0 -36 -34 -36zM185 579q-35 0 -35 36q0 35 35 35q34 0 34 -35q0 -36 -34 -36z" />
    <glyph glyph-name="Eth" unicode="&#xd0;" horiz-adv-x="614" 
d="M52 226q-23 0 -23 24q0 23 23 23h51q6 122 79 186q62 53 154 53q111 0 170.5 -66.5t59.5 -192.5q0 -262 -230 -262q-221 0 -233 235h-51zM150 226q5 -97 50 -142.5t136 -45.5q183 0 183 215q0 212 -183 212q-64 0 -109 -31q-71 -48 -77 -161h62q24 0 24 -23
q0 -24 -24 -24h-62z" />
    <glyph glyph-name="Ntilde" unicode="&#xd1;" horiz-adv-x="455" 
d="M101 403v-381q0 -24 -24 -24q-23 0 -23 24v460q0 18 17 23t26 -10l259 -394v381q0 24 23 24q24 0 24 -24v-460q0 -18 -17 -23t-27 10zM336 586q-23 -19 -54 -19q-28 0 -76 26q-39 21 -54 21q-20 0 -28.5 -14.5t-21.5 -14.5q-23 0 -23 23q0 24 22 38.5t51 14.5
q27 0 76 -27q38 -20 54 -20q30 0 35 19t20 21q10 1 16.5 -6.5t6.5 -16.5q0 -26 -24 -45z" />
    <glyph glyph-name="Ograve" unicode="&#xd2;" horiz-adv-x="558" 
d="M282 -8q-234 0 -234 260q0 134 74 203q63 58 160 58q111 0 170 -67t59 -192q0 -262 -229 -262zM464 254q0 212 -182 212q-68 0 -115 -35q-72 -53 -72 -179q0 -110 45 -161.5t142 -51.5q182 0 182 215zM228 620q-22 9 -14 31t30 13l125 -47q22 -8 14 -30t-30 -14z" />
    <glyph glyph-name="Oacute" unicode="&#xd3;" horiz-adv-x="558" 
d="M282 -8q229 0 229 262q0 125 -59 192t-170 67q-97 0 -160 -58q-74 -69 -74 -203q0 -260 234 -260zM464 254q0 -215 -182 -215q-97 0 -142 51.5t-45 161.5q0 126 72 179q47 35 115 35q182 0 182 -212zM323 664q22 9 30 -13q9 -22 -13 -31l-125 -47q-22 -8 -30 14
q-9 22 13 30z" />
    <glyph glyph-name="Ocircumflex" unicode="&#xd4;" horiz-adv-x="558" 
d="M282 -8q-234 0 -234 260q0 134 74 203q63 58 160 58q111 0 170 -67t59 -192q0 -262 -229 -262zM464 254q0 212 -182 212q-68 0 -115 -35q-72 -53 -72 -179q0 -110 45 -161.5t142 -51.5q182 0 182 215zM286 623l-76 -65q-18 -15 -33 3q-16 18 2 33l92 78q15 13 31 0
l92 -78q17 -15 2 -33t-33 -3z" />
    <glyph glyph-name="Otilde" unicode="&#xd5;" horiz-adv-x="558" 
d="M282 -8q-234 0 -234 260q0 134 74 203q63 58 160 58q111 0 170 -67t59 -192q0 -262 -229 -262zM464 254q0 212 -182 212q-68 0 -115 -35q-72 -53 -72 -179q0 -110 45 -161.5t142 -51.5q182 0 182 215zM406 586q-23 -19 -54 -19q-28 0 -76 26q-39 21 -54 21
q-20 0 -28.5 -14.5t-21.5 -14.5q-23 0 -23 23q0 24 22 38.5t51 14.5q27 0 76 -27q38 -20 54 -20q30 0 35 19t20 21q10 1 16.5 -6.5t6.5 -16.5q0 -26 -24 -45z" />
    <glyph glyph-name="Odieresis" unicode="&#xd6;" horiz-adv-x="558" 
d="M282 -8q-234 0 -234 260q0 134 74 203q63 58 160 58q111 0 170 -67t59 -192q0 -262 -229 -262zM464 254q0 212 -182 212q-68 0 -115 -35q-72 -53 -72 -179q0 -110 45 -161.5t142 -51.5q182 0 182 215zM201 579q-35 0 -35 35q0 36 35 36q33 0 33 -35q0 -36 -33 -36z
M355 579q-34 0 -34 35q0 36 34 36t34 -35q0 -36 -34 -36z" />
    <glyph glyph-name="multiply" unicode="&#xd7;" horiz-adv-x="500" 
 />
    <glyph glyph-name="Oslash" unicode="&#xd8;" horiz-adv-x="558" 
d="M140 -48q-11 -20 -32 -9q-20 11 -9 32l32 59q-86 63 -86 219q0 133 75 202q63 59 159 59q60 0 105 -20l25 45q11 21 32 10q20 -12 9 -32l-26 -47q85 -65 85 -215q0 -262 -230 -262q-61 0 -107 18zM361 452q-35 15 -82 15q-67 0 -114 -35q-72 -53 -72 -179q0 -128 61 -178
zM195 53q35 -13 84 -13q183 0 183 215q0 121 -61 173z" />
    <glyph glyph-name="Ugrave" unicode="&#xd9;" horiz-adv-x="546" 
d="M448 481q0 24 23 24q24 0 24 -24v-269q0 -105 -58 -162.5t-163 -57.5q-220 0 -220 218v272q0 23 23 23q24 0 24 -23v-272q0 -89 41.5 -130t131.5 -41q174 0 174 173v269zM210 620q-22 9 -14 31q9 22 31 13l124 -47q22 -8 14 -30t-30 -14z" />
    <glyph glyph-name="Uacute" unicode="&#xda;" horiz-adv-x="546" 
d="M448 212q0 -173 -174 -173q-90 0 -131.5 41t-41.5 130v272q0 23 -24 23q-23 0 -23 -23v-272q0 -218 220 -218q105 0 163 57.5t58 162.5v269q0 24 -24 24q-23 0 -23 -24v-269zM322 664q22 9 30 -13t-14 -31l-125 -47q-22 -8 -30 14t14 30z" />
    <glyph glyph-name="Ucircumflex" unicode="&#xdb;" horiz-adv-x="546" 
d="M448 481q0 24 23 24q24 0 24 -24v-269q0 -105 -58 -162.5t-163 -57.5q-220 0 -220 218v272q0 23 23 23q24 0 24 -23v-272q0 -89 41.5 -130t131.5 -41q174 0 174 173v269zM275 623l-76 -65q-18 -15 -33 3q-16 18 2 33l92 78q15 13 31 0l91 -78q18 -15 3 -33t-33 -3z" />
    <glyph glyph-name="Udieresis" unicode="&#xdc;" horiz-adv-x="546" 
d="M448 481q0 24 23 24q24 0 24 -24v-269q0 -105 -58 -162.5t-163 -57.5q-220 0 -220 218v272q0 23 23 23q24 0 24 -23v-272q0 -89 41.5 -130t131.5 -41q174 0 174 173v269zM198 579q-35 0 -35 35q0 36 35 36q33 0 33 -35q0 -36 -33 -36zM352 579q-34 0 -34 35q0 36 34 36
t34 -35q0 -36 -34 -36z" />
    <glyph glyph-name="Yacute" unicode="&#xdd;" horiz-adv-x="433" 
d="M194 21q0 -24 23 -24q24 0 24 24v156l162 294q11 20 -10 32q-20 11 -32 -10l-143 -259l-144 259q-11 21 -31 10q-21 -12 -10 -32l161 -291v-159zM277 664q22 9 30 -13q9 -22 -14 -31l-124 -47q-22 -8 -31 14q-8 22 14 30z" />
    <glyph glyph-name="Thorn" unicode="&#xde;" horiz-adv-x="405" 
d="M112 19q0 -24 -24 -24q-23 0 -23 24v541q0 23 23 23q24 0 24 -23v-99q26 16 71 16q178 0 178 -191q0 -84 -29 -129q-42 -63 -149 -63q-46 0 -71 12v-87zM112 169q12 -28 71 -28q73 0 102 31t29 114q0 80 -30.5 112t-100.5 32q-61 0 -71 -41v-220z" />
    <glyph glyph-name="germandbls" unicode="&#xdf;" horiz-adv-x="491" 
d="M68 392q0 53 42 88t107 35q69 0 107 -38q32 -32 32 -71q0 -52 -52 -87q-20 -14 -20 -23q0 -13 10 -21t42 -19q49 -17 69 -35q37 -32 37 -88q0 -51 -41 -91q-50 -49 -141 -49q-43 0 -77 9q-23 7 -17 29q7 23 29 17q29 -8 65 -8q72 0 109 37q25 26 25 56q0 34 -20 52
q-14 12 -54 26.5t-56 27.5q-27 21 -27 57q0 34 41 62q31 21 31 48q0 19 -18 37q-25 25 -74 25q-45 0 -73.5 -21.5t-28.5 -54.5v-374q0 -23 -24 -23q-23 0 -23 23v374z" />
    <glyph glyph-name="agrave" unicode="&#xe0;" horiz-adv-x="434" 
d="M153 520q-22 9 -14 31t30 13l125 -47q22 -8 14 -30t-30 -14zM320 34q-45 -43 -117 -43q-146 0 -146 125q0 55 41 89.5t105 34.5q120 0 115 37q-6 39 -30 54.5t-76 15.5q-56 0 -95 -42q-16 -17 -33 -1q-17 15 -1 33q52 58 129 58q155 0 155 -156v-220q0 -23 -23 -23
q-24 0 -24 23v15zM320 211q-37 -18 -117 -18q-39 0 -66 -17q-33 -21 -33 -60q0 -77 99 -77q59 0 92 34q25 28 25 60v78z" />
    <glyph glyph-name="aacute" unicode="&#xe1;" horiz-adv-x="434" 
d="M267 564q22 9 30 -13q9 -22 -14 -31l-124 -47q-22 -8 -31 14q-8 22 14 30zM320 19q0 -23 24 -23q23 0 23 23v220q0 156 -155 156q-77 0 -129 -58q-16 -18 1 -33q17 -16 33 1q39 42 95 42q52 0 76 -15.5t30 -54.5q5 -37 -115 -37q-64 0 -105 -34.5t-41 -89.5
q0 -125 146 -125q72 0 117 43v-15zM320 133q0 -32 -25 -60q-33 -34 -92 -34q-99 0 -99 77q0 39 33 60q27 17 66 17q80 0 117 18v-78z" />
    <glyph glyph-name="acircumflex" unicode="&#xe2;" horiz-adv-x="435" 
d="M213 523l-77 -65q-18 -15 -33 3t3 33l92 78q15 13 30 0l92 -78q18 -15 3 -33q-16 -18 -34 -3zM320 34q-45 -42 -117 -42q-146 0 -146 125q0 55 41 89.5t105 34.5q120 0 115 36q-6 39 -30 55t-76 16q-56 0 -95 -42q-16 -18 -33 -2t-1 34q52 57 129 57q155 0 155 -155v-220
q0 -23 -23 -23q-24 0 -24 23v14zM320 211q-37 -17 -117 -17q-39 0 -66 -17q-33 -21 -33 -60q0 -78 99 -78q59 0 92 35q25 28 25 59v78z" />
    <glyph glyph-name="atilde" unicode="&#xe3;" horiz-adv-x="434" 
d="M336 476q-23 -19 -54 -19q-28 0 -76 26q-39 21 -54 21q-20 0 -28.5 -14.5t-21.5 -14.5q-23 0 -23 23q0 24 22 38.5t51 14.5q27 0 76 -27q38 -20 54 -20q30 0 35 19t20 21q10 1 16.5 -6.5t6.5 -16.5q0 -26 -24 -45zM320 36q-45 -43 -117 -43q-146 0 -146 125q0 55 41 89.5
t105 34.5q120 0 115 37q-6 39 -30 54.5t-76 15.5q-56 0 -95 -42q-16 -17 -33 -1q-17 15 -1 33q52 57 129 57q155 0 155 -155v-220q0 -23 -23 -23q-24 0 -24 23v15zM320 213q-37 -18 -117 -18q-39 0 -66 -17q-33 -21 -33 -60q0 -77 99 -77q59 0 92 34q25 28 25 60v78z" />
    <glyph glyph-name="adieresis" unicode="&#xe4;" horiz-adv-x="434" 
d="M136 479q-35 0 -35 35q0 36 35 36q33 0 33 -35q0 -36 -33 -36zM290 479q-34 0 -34 35q0 36 34 36t34 -35q0 -36 -34 -36zM320 34q-45 -42 -117 -42q-146 0 -146 125q0 55 41 89.5t105 34.5q120 0 115 36q-6 40 -30 55.5t-76 15.5q-56 0 -95 -42q-16 -18 -33 -2t-1 34
q52 57 129 57q155 0 155 -155v-220q0 -23 -23 -23q-24 0 -24 23v14zM320 212q-37 -18 -117 -18q-39 0 -66 -17q-33 -21 -33 -60q0 -78 99 -78q59 0 92 35q25 28 25 59v79z" />
    <glyph glyph-name="aring" unicode="&#xe5;" horiz-adv-x="433" 
d="M212 419q-39 0 -61 23t-22 61q0 37 23.5 60.5t59.5 23.5q37 0 59.5 -22.5t22.5 -60.5q0 -85 -82 -85zM255 504q0 44 -43 44q-44 0 -44 -45t44 -45q43 0 43 46zM320 35q-45 -42 -117 -42q-146 0 -146 125q0 55 41 89.5t105 34.5q120 0 115 36q-6 39 -30 55t-76 16
q-56 0 -95 -42q-16 -18 -33 -2t-1 34q52 57 129 57q155 0 155 -155v-220q0 -23 -23 -23q-24 0 -24 23v14zM320 212q-37 -17 -117 -17q-39 0 -66 -17q-33 -21 -33 -60q0 -78 99 -78q59 0 92 35q25 28 25 59v78z" />
    <glyph glyph-name="ae" unicode="&#xe6;" horiz-adv-x="705" 
d="M196 -9q-146 0 -146 124q0 55 40.5 90t105.5 35q113 0 114 36q-6 39 -30 55t-75 16q-57 0 -95 -43q-16 -17 -33 -1q-18 16 -2 33q53 58 130 58q110 0 141 -73q47 73 150 73q55 0 106 -33q56 -37 56 -89q0 -14 -14 -21q-274 -131 -275 -132q22 -81 127 -81q92 0 124 82
q9 22 31 13q22 -8 13 -30q-15 -38 -45 -66q-49 -46 -123 -46q-115 0 -156 76q-45 -76 -144 -76zM313 210q-37 -17 -117 -17q-40 0 -67 -18q-32 -20 -32 -60q0 -77 99 -77q117 0 117 101v71zM604 284q-29 63 -108 63q-135 0 -135 -155q0 -11 1 -24z" />
    <glyph glyph-name="ccedilla" unicode="&#xe7;" horiz-adv-x="441" 
d="M209 -7q-153 14 -153 201q0 96 47.5 148.5t134.5 52.5q100 0 145 -64q13 -20 -7 -33q-19 -13 -32 6q-30 44 -106 44q-135 0 -135 -154q0 -84 31 -119.5t104 -35.5q82 0 123 76q11 20 32 9q20 -11 9 -32q-49 -91 -145 -99l-4 -28q10 2 20 2q42 0 66 -23t24 -63
q0 -35 -21 -59q-24 -28 -67 -28q-23 0 -23 24t23 24q41 0 41 39t-43 39q-15 0 -34 -12q-15 -11 -27 -5q-15 8 -13 25z" />
    <glyph glyph-name="egrave" unicode="&#xe8;" horiz-adv-x="460" 
d="M115 121l-1 -1q22 -81 127 -81q92 0 124 82q9 22 31 14q22 -9 13 -31q-15 -38 -45 -66q-49 -46 -123 -46q-182 0 -182 202q0 96 47.5 148.5t134.5 52.5q56 0 106 -33q56 -37 56 -88q0 -15 -13 -22zM350 285q-30 63 -109 63q-135 0 -135 -154q0 -12 1 -25zM165 520
q-23 9 -14 31q8 22 30 13l125 -47q22 -8 14 -30q-9 -22 -31 -14z" />
    <glyph glyph-name="eacute" unicode="&#xe9;" horiz-adv-x="460" 
d="M390 252q13 7 13 22q0 51 -56 88q-50 33 -106 33q-87 0 -134.5 -52.5t-47.5 -148.5q0 -202 182 -202q74 0 123 46q30 28 45 66q9 22 -13 31q-22 8 -31 -14q-32 -82 -124 -82q-105 0 -127 81l1 1zM107 169q-1 13 -1 25q0 154 135 154q79 0 109 -63zM267 564q22 9 30 -13
q9 -22 -14 -31l-124 -47q-22 -8 -31 14q-8 22 14 30z" />
    <glyph glyph-name="ecircumflex" unicode="&#xea;" horiz-adv-x="460" 
d="M115 121l-1 -1q22 -81 127 -81q92 0 124 82q9 22 31 14q22 -9 13 -31q-15 -38 -45 -66q-49 -46 -123 -46q-182 0 -182 202q0 96 47.5 148.5t134.5 52.5q56 0 106 -33q56 -37 56 -88q0 -15 -13 -22zM350 285q-30 63 -109 63q-135 0 -135 -154q0 -12 1 -25zM240 523
l-76 -65q-18 -15 -34 3q-15 18 3 33l92 78q15 13 30 0l92 -78q18 -15 3 -33t-33 -3z" />
    <glyph glyph-name="edieresis" unicode="&#xeb;" horiz-adv-x="460" 
d="M115 121l-1 -1q22 -81 127 -81q92 0 124 82q9 22 31 14q22 -9 13 -31q-15 -38 -45 -66q-49 -46 -123 -46q-182 0 -182 202q0 96 47.5 148.5t134.5 52.5q56 0 106 -33q56 -37 56 -88q0 -15 -13 -22zM350 285q-30 63 -109 63q-135 0 -135 -154q0 -12 1 -25zM161 479
q-34 0 -34 35q0 36 34 36t34 -35q0 -36 -34 -36zM316 479q-35 0 -35 35q0 36 35 36q34 0 34 -35q0 -36 -34 -36z" />
    <glyph glyph-name="igrave" unicode="&#xec;" horiz-adv-x="213" 
d="M82 370q0 24 24 24q23 0 23 -24v-347q0 -23 -23 -23q-24 0 -24 23v347zM42 520q-22 9 -13 31q8 22 30 13l125 -47q22 -8 13 -30q-8 -22 -30 -14z" />
    <glyph glyph-name="iacute" unicode="&#xed;" horiz-adv-x="213" 
d="M82 23q0 -23 24 -23q23 0 23 23v347q0 24 -23 24q-24 0 -24 -24v-347zM168 564q22 9 30 -13q9 -22 -13 -31l-125 -47q-22 -8 -30 14q-9 22 13 30z" />
    <glyph glyph-name="icircumflex" unicode="&#xee;" horiz-adv-x="213" 
d="M82 370q0 24 24 24q23 0 23 -24v-347q0 -23 -23 -23q-24 0 -24 23v347zM105 523l-77 -65q-18 -15 -33 3t3 33l91 78q16 13 31 0l92 -78q18 -15 2 -33q-15 -18 -33 -3z" />
    <glyph glyph-name="idieresis" unicode="&#xef;" horiz-adv-x="213" 
d="M82 370q0 24 24 24q23 0 23 -24v-347q0 -23 -23 -23q-24 0 -24 23v347zM30 479q-35 0 -35 35q0 36 35 36q33 0 33 -35q0 -36 -33 -36zM184 479q-34 0 -34 35q0 36 34 36t34 -35q0 -36 -34 -36z" />
    <glyph glyph-name="eth" unicode="&#xf0;" horiz-adv-x="429" 
d="M329 444q53 -70 53 -192q0 -116 -30 -176q-41 -85 -145 -85q-65 0 -112 46q-51 50 -51 131q0 76 45.5 126.5t113.5 50.5q84 0 131 -61q-6 84 -43 132l-38 -28q-19 -14 -33 5t5 33l30 22q-28 17 -61 17q-24 0 -24 24q0 23 24 23q56 0 101 -34l34 25q19 14 33 -5t-5 -33z
M322 166q0 61 -32 96.5t-87 35.5q-44 0 -76 -33q-36 -37 -36 -97q0 -48 25 -84q31 -45 87 -45q119 0 119 127z" />
    <glyph glyph-name="ntilde" unicode="&#xf1;" horiz-adv-x="459" 
d="M351 240q0 108 -117 108q-48 0 -85 -34q-46 -43 -46 -119v-173q0 -24 -23 -24q-24 0 -24 24v345q0 23 24 23q23 0 23 -23v-34q53 62 131 62q164 0 164 -155v-220q0 -23 -23 -23q-24 0 -24 23v220zM349 476q-24 -19 -55 -19q-27 0 -76 26q-38 21 -54 21q-20 0 -28 -14.5
t-21 -14.5q-24 0 -24 23q0 24 22 38.5t51 14.5q27 0 76 -27q38 -20 54 -20q30 0 35 19t20 21q10 1 17 -6.5t7 -16.5q0 -26 -24 -45z" />
    <glyph glyph-name="ograve" unicode="&#xf2;" horiz-adv-x="469" 
d="M236 -6q-181 0 -181 201q0 96 47.5 149t133.5 53q179 0 179 -201q0 -202 -179 -202zM338 76q30 35 30 120q0 81 -31.5 117.5t-100.5 36.5q-134 0 -134 -155q0 -83 31 -118.5t103 -35.5t102 35zM192 520q-22 9 -14 31q9 22 31 13l124 -47q22 -8 14 -30t-30 -14z" />
    <glyph glyph-name="oacute" unicode="&#xf3;" horiz-adv-x="469" 
d="M236 -6q179 0 179 202q0 201 -179 201q-86 0 -133.5 -53t-47.5 -149q0 -201 181 -201zM338 76q-30 -35 -102 -35t-103 35.5t-31 118.5q0 155 134 155q69 0 100.5 -36.5t31.5 -117.5q0 -85 -30 -120zM267 564q22 9 30 -13q9 -22 -14 -31l-124 -47q-22 -8 -31 14
q-8 22 14 30z" />
    <glyph glyph-name="ocircumflex" unicode="&#xf4;" horiz-adv-x="469" 
d="M236 -6q-181 0 -181 201q0 96 47.5 149t133.5 53q179 0 179 -201q0 -202 -179 -202zM338 76q30 35 30 120q0 81 -31.5 117.5t-100.5 36.5q-134 0 -134 -155q0 -83 31 -118.5t103 -35.5t102 35zM235 523l-77 -65q-18 -15 -33 3t3 33l92 78q15 13 30 0l92 -78q18 -15 3 -33
q-16 -18 -34 -3z" />
    <glyph glyph-name="otilde" unicode="&#xf5;" horiz-adv-x="469" 
d="M236 -6q-181 0 -181 201q0 96 47.5 149t133.5 53q179 0 179 -201q0 -202 -179 -202zM338 76q30 35 30 120q0 81 -31.5 117.5t-100.5 36.5q-134 0 -134 -155q0 -83 31 -118.5t103 -35.5t102 35zM311 504q29 0 34.5 19t20.5 21q9 1 16 -6.5t7 -16.5q0 -26 -23.5 -45
t-54.5 -19q-28 0 -77 26q-38 21 -53 21q-21 0 -29 -14.5t-21 -14.5q-24 0 -24 23q0 24 22.5 38.5t51.5 14.5q27 0 75 -27q39 -20 55 -20z" />
    <glyph glyph-name="odieresis" unicode="&#xf6;" horiz-adv-x="469" 
d="M236 -6q-181 0 -181 201q0 96 47.5 149t133.5 53q179 0 179 -201q0 -202 -179 -202zM338 76q30 35 30 120q0 81 -31.5 117.5t-100.5 36.5q-134 0 -134 -155q0 -83 31 -118.5t103 -35.5t102 35zM160 479q-35 0 -35 35q0 36 35 36q34 0 34 -35q0 -36 -34 -36zM315 479
q-35 0 -35 35q0 36 35 36q33 0 33 -35q0 -36 -33 -36z" />
    <glyph glyph-name="divide" unicode="&#xf7;" horiz-adv-x="405" 
d="M225 138q0 -23 -24 -23q-23 0 -23 23v2q0 23 23 23q24 0 24 -23v-2zM225 362q0 -24 -24 -24q-23 0 -23 24v1q0 24 23 24q24 0 24 -24v-1zM70 227q-24 0 -24 24q0 23 24 23h263q23 0 23 -23q0 -24 -23 -24h-263z" />
    <glyph glyph-name="oslash" unicode="&#xf8;" horiz-adv-x="469" 
d="M141 -47q-11 -21 -32 -11q-21 11 -10 32l23 47q-67 47 -67 173q0 96 47.5 148.5t134.5 52.5q37 0 67 -9l24 49q10 21 31 10q21 -10 11 -31l-24 -48q69 -48 69 -171q0 -203 -178 -203q-41 0 -72 9zM282 343q-20 5 -45 5q-135 0 -135 -154q0 -96 42 -129zM187 44
q21 -5 50 -5q71 0 101 35.5t30 120.5q0 93 -43 128z" />
    <glyph glyph-name="ugrave" unicode="&#xf9;" 
d="M350 56q-53 -62 -131 -62q-164 0 -164 155v220q0 23 24 23q23 0 23 -23v-220q0 -108 117 -108q48 0 85 34q46 43 46 119v173q0 24 24 24q23 0 23 -24v-344q0 -24 -23 -24q-24 0 -24 24v33zM167 520q-22 9 -13 31q8 22 30 13l125 -47q22 -8 14 -30q-9 -22 -31 -14z" />
    <glyph glyph-name="uacute" unicode="&#xfa;" 
d="M350 23q0 -24 24 -24q23 0 23 24v344q0 24 -23 24q-24 0 -24 -24v-173q0 -76 -46 -119q-37 -34 -85 -34q-117 0 -117 108v220q0 23 -23 23q-24 0 -24 -23v-220q0 -155 164 -155q78 0 131 62v-33zM267 564q22 9 30 -13q9 -22 -14 -31l-124 -47q-22 -8 -31 14q-8 22 14 30z
" />
    <glyph glyph-name="ucircumflex" unicode="&#xfb;" 
d="M350 56q-53 -62 -131 -62q-164 0 -164 155v220q0 23 24 23q23 0 23 -23v-220q0 -108 117 -108q48 0 85 34q46 43 46 119v173q0 24 24 24q23 0 23 -24v-344q0 -24 -23 -24q-24 0 -24 24v33zM227 523l-77 -65q-18 -15 -33 3t3 33l92 78q15 13 30 0l92 -78q18 -15 3 -33
q-16 -18 -34 -3z" />
    <glyph glyph-name="udieresis" unicode="&#xfc;" 
d="M350 56q-53 -62 -131 -62q-164 0 -164 155v220q0 23 24 23q23 0 23 -23v-220q0 -108 117 -108q48 0 85 34q46 43 46 119v173q0 24 24 24q23 0 23 -24v-344q0 -24 -23 -24q-24 0 -24 24v33zM151 479q-35 0 -35 35q0 36 35 36q33 0 33 -35q0 -36 -33 -36zM305 479
q-34 0 -34 35q0 36 34 36t34 -35q0 -36 -34 -36z" />
    <glyph glyph-name="yacute" unicode="&#xfd;" horiz-adv-x="385" 
d="M172 14l-139 344q-9 22 13 31q21 9 30 -13l121 -298l114 297q9 22 31 14q22 -9 13 -31l-167 -435q-39 -101 -109 -101q-24 0 -52 11q-22 8 -14 30q9 22 31 14q20 -8 34 -8q39 0 66 71zM248 564q22 9 30 -13q9 -22 -14 -31l-124 -47q-22 -8 -31 14q-8 22 14 30z" />
    <glyph glyph-name="thorn" unicode="&#xfe;" horiz-adv-x="405" 
d="M112 -51q0 -24 -24 -24q-23 0 -23 24v611q0 23 23 23q24 0 24 -23v-169q26 16 71 16q178 0 178 -191q0 -84 -29 -129q-42 -63 -149 -63q-46 0 -71 12v-87zM112 99q12 -28 71 -28q73 0 102 31t29 114q0 80 -30.5 112t-100.5 32q-61 0 -71 -41v-220z" />
    <glyph glyph-name="ydieresis" unicode="&#xff;" horiz-adv-x="385" 
d="M172 14l-139 344q-9 22 13 31q21 9 30 -13l121 -298l114 297q9 22 31 14q22 -9 13 -31l-167 -435q-39 -101 -109 -101q-24 0 -52 11q-22 8 -14 30q9 22 31 14q20 -8 34 -8q39 0 66 71zM120 479q-35 0 -35 35q0 36 35 36q33 0 33 -35q0 -36 -33 -36zM274 479q-34 0 -34 35
q0 36 34 36t34 -35q0 -36 -34 -36z" />
    <glyph glyph-name="dotlessi" unicode="&#x131;" horiz-adv-x="213" 
d="M82 370q0 24 24 24q23 0 23 -24v-347q0 -23 -23 -23q-24 0 -24 23v347z" />
    <glyph glyph-name="Lslash" unicode="&#x141;" horiz-adv-x="535" 
d="M148 -3q-24 0 -24 24v318l-64 -31q-21 -11 -31 10q-11 21 10 32l85 42v89q0 24 24 24q23 0 23 -24v-66l67 33q21 11 32 -11q10 -21 -11 -31l-88 -44v-318h304q23 0 23 -23q0 -24 -23 -24h-327z" />
    <glyph glyph-name="lslash" unicode="&#x142;" horiz-adv-x="299" 
d="M117 339l-59 -29q-21 -10 -31 11q-11 21 10 31l80 40v97q0 23 23 23q24 0 24 -23v-74l72 36q21 10 32 -11q10 -21 -11 -32l-93 -46v-339q0 -23 -24 -23q-23 0 -23 23v316z" />
    <glyph glyph-name="OE" unicode="&#x152;" horiz-adv-x="866" 
d="M492 -2q-23 0 -23 24v48q-58 -78 -181 -78q-234 0 -234 260q0 133 75 202q63 59 159 59q122 0 181 -80v49q0 24 23 24h295q24 0 24 -24q0 -23 -24 -23h-271v-165q0 -6 1 -12h192q23 0 23 -23q0 -24 -23 -24h-192q-1 -16 -1 -23v-167h271q24 0 24 -23q0 -24 -24 -24h-295z
M469 260q0 95 -49 150t-132 55q-67 0 -114 -34q-72 -53 -72 -179q0 -111 44.5 -162t141.5 -51q181 0 181 221z" />
    <glyph glyph-name="oe" unicode="&#x153;" horiz-adv-x="762" 
d="M239 -7q-182 0 -182 201q0 96 47.5 149t134.5 53q115 0 156 -85q45 85 156 85q56 0 106 -33q56 -37 56 -89q0 -14 -13 -21q-275 -132 -275 -133q22 -80 126 -80q93 0 125 82q8 22 30 13q22 -8 14 -30q-15 -38 -45 -66q-49 -46 -124 -46q-117 0 -157 79q-41 -79 -155 -79z
M370 194q0 155 -131 155q-135 0 -135 -155q0 -83 31 -118.5t104 -35.5q131 0 131 154zM660 286q-30 63 -109 63q-132 0 -134 -151q0 -21 1 -27z" />
    <glyph glyph-name="Scaron" unicode="&#x160;" horiz-adv-x="496" 
d="M252 466q-142 0 -148 -76q-7 -94 156 -94q195 0 195 -129q0 -28 -10 -57q-18 -53 -71.5 -85.5t-126.5 -32.5q-152 0 -202 110q-10 21 11 31t31 -11q38 -83 160 -83q66 0 110 30q51 34 51 98q0 82 -148 82q-83 0 -135 24q-69 32 -69 101q0 66 56 103q53 36 140 36
q101 0 165 -64q17 -17 0 -33q-17 -17 -33 0q-51 50 -132 50zM268 559q-15 -13 -30 0l-92 78q-18 16 -3 34t33 2l77 -65l76 65q18 16 34 -2q15 -18 -3 -34z" />
    <glyph glyph-name="scaron" unicode="&#x161;" horiz-adv-x="443" 
d="M228 459q-15 -13 -30 0l-92 78q-18 16 -3 34t33 2l77 -65l76 65q18 16 34 -2q15 -18 -3 -34zM344 35q-51 -41 -132 -41q-99 0 -150 58q-16 17 2 33q17 16 33 -2q38 -42 115 -42q64 0 101 29q29 23 29 53q0 27 -15 39q-26 22 -104 22q-100 0 -137 39q-25 27 -23 73
q3 47 42.5 74t106.5 27q72 0 128 -41q19 -14 6 -33q-14 -19 -33 -5q-44 31 -101 31q-99 0 -102 -55q-1 -27 10 -39q23 -24 103 -24q166 0 166 -108q0 -51 -45 -88z" />
    <glyph glyph-name="Ydieresis" unicode="&#x178;" horiz-adv-x="433" 
d="M194 180l-161 291q-11 20 10 32q20 11 31 -10l144 -259l143 259q12 21 32 10q21 -12 10 -32l-162 -294v-156q0 -24 -24 -24q-23 0 -23 24v159zM146 579q-35 0 -35 35q0 36 35 36q33 0 33 -35q0 -36 -33 -36zM300 579q-34 0 -34 35q0 36 34 36t34 -35q0 -36 -34 -36z" />
    <glyph glyph-name="Zcaron" unicode="&#x17d;" horiz-adv-x="407" 
d="M47 -2q-23 0 -23 24q0 7 4 13l280 424h-255q-24 0 -24 23q0 24 24 24h299q24 0 24 -24q0 -7 -4 -13l-281 -423h265q24 0 24 -24t-24 -24h-309zM218 559q-15 -13 -30 0l-92 78q-18 16 -3 34t33 2l77 -65l76 65q18 16 34 -2q15 -18 -3 -34z" />
    <glyph glyph-name="zcaron" unicode="&#x17e;" horiz-adv-x="381" 
d="M58 -4q-24 0 -24 23q0 8 5 14l228 309h-198q-24 0 -24 24q0 23 24 23h244q24 0 24 -23q0 -8 -5 -14l-228 -309h220q24 0 24 -24q0 -23 -24 -23h-266zM205 459q-15 -13 -31 0l-91 78q-18 16 -3 34t33 2l77 -65l76 65q18 16 33 -2q16 -18 -2 -34z" />
    <glyph glyph-name="florin" unicode="&#x192;" 
d="M210 243h-62q-24 0 -24 24q0 23 24 23h69l14 101q17 122 115 122q23 0 48 -10q29 -12 32 -29q1 -11 -7.5 -17.5t-19.5 -6.5q-7 0 -23 8t-30 8q-30 0 -44 -15q-18 -18 -25 -66l-13 -95h82q24 0 24 -23q0 -24 -24 -24h-89l-45 -325q-17 -122 -115 -122q-23 0 -48 10
q-29 12 -32 29q-3 19 17 23q12 1 24.5 -7t38.5 -8q29 0 45 16.5t23 64.5z" />
    <glyph glyph-name="circumflex" unicode="&#x2c6;" horiz-adv-x="435" 
d="M213 523l-77 -65q-18 -15 -33 3t3 33l92 78q15 13 30 0l92 -78q18 -15 3 -33q-16 -18 -34 -3z" />
    <glyph glyph-name="caron" unicode="&#x2c7;" horiz-adv-x="443" 
d="M228 459q-15 -13 -30 0l-92 78q-18 16 -3 34t33 2l77 -65l76 65q18 16 34 -2q15 -18 -3 -34z" />
    <glyph glyph-name="breve" unicode="&#x2d8;" horiz-adv-x="443" 
d="M228 459q-15 -13 -30 0l-92 78q-18 16 -3 34t33 2l77 -65l76 65q18 16 34 -2q15 -18 -3 -34z" />
    <glyph glyph-name="dotaccent" unicode="&#x2d9;" horiz-adv-x="213" 
d="M129 498q0 -24 -23 -24q-24 0 -24 24v10q0 24 24 24q23 0 23 -24v-10z" />
    <glyph glyph-name="ring" unicode="&#x2da;" horiz-adv-x="433" 
d="M212 419q-39 0 -61 23t-22 61q0 37 23.5 60.5t59.5 23.5q37 0 59.5 -22.5t22.5 -60.5q0 -85 -82 -85zM255 504q0 44 -43 44q-44 0 -44 -45t44 -45q43 0 43 46z" />
    <glyph glyph-name="ogonek" unicode="&#x2db;" horiz-adv-x="442" 
d="M293 -72q3 -17 -13 -25q-12 -5 -27 5q-19 13 -34 13q-43 0 -43 -40q0 -39 41 -39q24 0 24 -24q0 -23 -24 -23q-42 0 -67 27q-21 24 -21 59q0 40 24 63.5t66 23.5q10 0 21 -2l-7 41v3q0 20 20 23q23 4 27 -19z" />
    <glyph glyph-name="tilde" unicode="&#x2dc;" horiz-adv-x="434" 
d="M336 476q-23 -19 -54 -19q-28 0 -76 26q-39 21 -54 21q-20 0 -28.5 -14.5t-21.5 -14.5q-23 0 -23 23q0 24 22 38.5t51 14.5q27 0 76 -27q38 -20 54 -20q30 0 35 19t20 21q10 1 16.5 -6.5t6.5 -16.5q0 -26 -24 -45z" />
    <glyph glyph-name="hungarumlaut" unicode="&#x2dd;" horiz-adv-x="460" 
d="M161 479q-34 0 -34 35q0 36 34 36t34 -35q0 -36 -34 -36zM316 479q-35 0 -35 35q0 36 35 36q34 0 34 -35q0 -36 -34 -36z" />
    <glyph glyph-name="Delta" unicode="&#x394;" horiz-adv-x="477" 
d="M75 -1q-12 0 -19 9.5t-3 21.5l164 460q6 16 22 16q17 0 22 -16l164 -460q4 -12 -3 -21.5t-19 -9.5h-328zM239 412l-131 -366h262z" />
    <glyph glyph-name="Omega" unicode="&#x3a9;" horiz-adv-x="620" 
d="M447 -1q-13 0 -20 11t-1 23q24 50 49 100q21 53 21 113q0 220 -182 220q-73 0 -120 -38q-67 -56 -67 -184q0 -92 54 -188l14 -23q6 -12 -1 -23t-21 -11h-111q-24 0 -24 23q0 24 24 24h71q-53 91 -53 198q0 127 62 198t172 71q229 0 229 -267q0 -104 -56 -200h69
q24 0 24 -23q0 -24 -24 -24h-109z" />
    <glyph glyph-name="Omega" unicode="&#x2126;" horiz-adv-x="620" 
d="M447 -1q-13 0 -20 11t-1 23q24 50 49 100q21 53 21 113q0 220 -182 220q-73 0 -120 -38q-67 -56 -67 -184q0 -92 54 -188l14 -23q6 -12 -1 -23t-21 -11h-111q-24 0 -24 23q0 24 24 24h71q-53 91 -53 198q0 127 62 198t172 71q229 0 229 -267q0 -104 -56 -200h69
q24 0 24 -23q0 -24 -24 -24h-109z" />
    <glyph glyph-name="pi" unicode="&#x3c0;" horiz-adv-x="468" 
d="M289 342h-110v-319q0 -24 -24 -24t-24 24v319h-72q-23 0 -23 24q0 23 23 23h349q24 0 24 -23q0 -24 -24 -24h-72v-319q0 -24 -24 -24q-23 0 -23 24v319z" />
    <glyph glyph-name="endash" unicode="&#x2013;" horiz-adv-x="337" 
d="M70 226q-24 0 -24 24q0 23 24 23h203q24 0 24 -23q0 -24 -24 -24h-203z" />
    <glyph glyph-name="emdash" unicode="&#x2014;" 
d="M70 226q-24 0 -24 24q0 23 24 23h313q24 0 24 -23q0 -24 -24 -24h-313z" />
    <glyph glyph-name="quoteleft" unicode="&#x2018;" horiz-adv-x="150" 
d="M82 423q0 -24 -24 -24q-23 0 -23 24v19q0 51 27 72q21 17 45 10q18 -4 18 -22q0 -3 -1 -6q-3 -9 -25 -14q-17 -3 -17 -40v-19z" />
    <glyph glyph-name="quoteright" unicode="&#x2019;" horiz-adv-x="150" 
d="M122 481q0 -51 -27 -72q-21 -16 -46 -10q-17 5 -17 22q0 3 1 6q3 10 24 14q18 4 18 40v20q0 23 23 23q24 0 24 -23v-20z" />
    <glyph glyph-name="quotesinglbase" unicode="&#x201a;" horiz-adv-x="163" 
d="M122 -22q0 -47 -25 -71t-57 -23q-24 2 -24 26q1 25 26 25q12 0 19 8q11 10 11 35v45q0 25 25 25t25 -25v-45z" />
    <glyph glyph-name="quotedblleft" unicode="&#x201c;" horiz-adv-x="238" 
d="M83 423q0 -24 -23 -24q-24 0 -24 24v19q0 51 27 72q21 17 46 10q17 -4 17 -22q0 -3 -1 -6q-3 -9 -22.5 -13t-19.5 -41v-19zM167 423q0 -24 -24 -24q-23 0 -23 24v19q0 51 27 72q21 17 45 10q18 -4 18 -22q0 -3 -1 -6q-3 -9 -25 -14q-17 -3 -17 -40v-19z" />
    <glyph glyph-name="quotedblright" unicode="&#x201d;" horiz-adv-x="238" 
d="M205 481q0 -51 -27 -72q-20 -16 -45 -10q-18 5 -18 22q0 3 1 6q3 10 25 14q17 4 17 40v20q0 23 24 23q23 0 23 -23v-20zM122 481q0 -51 -27 -72q-21 -16 -46 -10q-17 5 -17 22q0 3 1 6q3 10 24 14q18 4 18 40v20q0 23 23 23q24 0 24 -23v-20z" />
    <glyph glyph-name="quotedblbase" unicode="&#x201e;" horiz-adv-x="268" 
d="M122 -22q0 -47 -25 -71t-57 -23q-24 2 -24 26q1 25 26 25q12 0 19 8q11 10 11 35v45q0 25 25 25t25 -25v-45zM232 -22q0 -47 -25 -71t-57 -23q-24 2 -24 26q1 25 26 25q12 0 19 8q11 10 11 35v45q0 25 25 25t25 -25v-45z" />
    <glyph glyph-name="dagger" unicode="&#x2020;" horiz-adv-x="215" 
d="M130 441v-65q0 -23 -24 -23q-23 0 -23 23v65h-31q-23 0 -23 24q0 23 23 23h31v27q0 23 23 23q24 0 24 -23v-27h31q23 0 23 -23q0 -24 -23 -24h-31z" />
    <glyph glyph-name="daggerdbl" unicode="&#x2021;" horiz-adv-x="215" 
d="M129 372v-56q0 -24 -24 -24q-23 0 -23 24v56h-31q-24 0 -24 24q0 23 24 23h31v22h-31q-24 0 -24 23q0 24 24 24h31v26q0 24 23 24q24 0 24 -24v-26h30q24 0 24 -24q0 -23 -24 -23h-30v-22h30q24 0 24 -23q0 -24 -24 -24h-30z" />
    <glyph glyph-name="bullet" unicode="&#x2022;" horiz-adv-x="184" 
d="M94 204q-52 0 -52 53t52 53q51 0 51 -53t-51 -53z" />
    <glyph glyph-name="ellipsis" unicode="&#x2026;" horiz-adv-x="378" 
d="M107 27q0 -25 -25 -25t-25 25v2q0 25 25 25t25 -25v-2zM217 27q0 -25 -25 -25t-25 25v2q0 25 25 25t25 -25v-2zM327 27q0 -25 -25 -25t-25 25v2q0 25 25 25t25 -25v-2z" />
    <glyph glyph-name="perthousand" unicode="&#x2030;" horiz-adv-x="788" 
d="M138 296q-96 0 -96 106q0 49 25.5 77t70.5 28q95 0 95 -105q0 -106 -95 -106zM177 358q9 12 9 44q0 58 -48 58q-49 0 -49 -58q0 -33 10 -46t39 -13t39 15zM453 -3q-96 0 -96 105q0 50 25.5 78t70.5 28q95 0 95 -105q0 -106 -95 -106zM491 57q10 13 10 46q0 57 -48 57
q-49 0 -49 -58q0 -32 10 -45t39 -13t38 13zM437 495q13 20 33 7q19 -13 6 -33l-308 -461q-13 -19 -32 -6q-20 13 -7 32zM663 -3q-96 0 -96 105q0 50 25.5 78t70.5 28q95 0 95 -105q0 -106 -95 -106zM701 57q10 13 10 46q0 57 -48 57q-49 0 -49 -58q0 -32 10 -45t39 -13
t38 13z" />
    <glyph glyph-name="guilsinglleft" unicode="&#x2039;" horiz-adv-x="249" 
d="M46 209q-10 7 -10 20q0 12 10 19l127 86q12 8 25 1q12 -7 12 -20t-10 -20l-99 -66l99 -67q10 -7 10 -19q0 -14 -12 -21q-13 -7 -25 1z" />
    <glyph glyph-name="guilsinglright" unicode="&#x203a;" horiz-adv-x="249" 
d="M205 248q10 -7 10 -19q0 -13 -10 -20l-127 -86q-12 -8 -25 -1q-12 7 -12 21q0 12 10 19l99 67l-99 66q-10 7 -10 20t12 20q13 7 25 -1z" />
    <glyph glyph-name="fraction" unicode="&#x2044;" horiz-adv-x="481" 
d="M377 495q13 20 33 7q19 -13 6 -33l-308 -461q-13 -19 -32 -6q-20 13 -7 32z" />
    <glyph glyph-name="Euro" unicode="&#x20ac;" horiz-adv-x="593" 
d="M172 190q22 -151 182 -151q113 0 156 82q11 21 32 10q20 -11 10 -32q-56 -107 -198 -107q-203 0 -230 198h-72q-24 0 -24 23q0 24 24 24h69q-1 8 -1 16q0 23 3 46h-36q-24 0 -24 23q0 24 24 24h45q23 85 89 129q57 38 133 38q51 0 92 -15q22 -8 14 -30t-30 -14
q-33 12 -76 12q-135 0 -173 -120h203q23 0 23 -24q0 -23 -23 -23h-214q-3 -22 -3 -46q0 -8 1 -16h180q24 0 24 -24q0 -23 -24 -23h-176z" />
    <glyph glyph-name="trademark" unicode="&#x2122;" horiz-adv-x="494" 
d="M400 415l-28 -48q-7 -11 -21 -11q-13 0 -20 11l-29 49v-101q0 -24 -23 -24q-24 0 -24 24v163h-90v-163q0 -24 -23 -24q-24 0 -24 24v163h-60q-23 0 -23 23q0 24 23 24h213q21 0 28 -12l52 -88l52 88q9 16 27 11q17 -5 17 -23v-186q0 -24 -23 -24q-24 0 -24 24v100z" />
    <glyph glyph-name="partialdiff" unicode="&#x2202;" horiz-adv-x="430" 
d="M284 425q-37 40 -90 40q-24 0 -24 24q0 23 24 23q75 0 126 -58q62 -69 62 -202q0 -116 -30 -176q-41 -84 -145 -84q-65 0 -112 45q-51 50 -51 131q0 76 45.5 126.5t113.5 50.5q84 0 131 -61q-7 93 -50 141zM322 166q0 61 -32 96.5t-87 35.5q-44 0 -76 -33
q-36 -37 -36 -97q0 -48 25 -84q31 -45 87 -45q119 0 119 127z" />
    <glyph glyph-name="uni2206" unicode="&#x2206;" horiz-adv-x="477" 
d="M75 -1q-12 0 -19 9.5t-3 21.5l164 460q6 16 22 16q17 0 22 -16l164 -460q4 -12 -3 -21.5t-19 -9.5h-328zM239 412l-131 -366h262z" />
    <glyph glyph-name="product" unicode="&#x220f;" horiz-adv-x="637" 
d="M399 459h-165v-438q0 -23 -24 -23q-23 0 -23 23v438h-127q-24 0 -24 23q0 24 24 24h514q23 0 23 -24q0 -23 -23 -23h-128v-438q0 -23 -23 -23q-24 0 -24 23v438z" />
    <glyph glyph-name="summation" unicode="&#x2211;" horiz-adv-x="436" 
d="M64 -1q-24 0 -24 24q0 7 4 13l143 215l-146 219q-4 6 -4 13q0 24 24 24h299q24 0 24 -24q0 -23 -24 -23h-255l130 -195q4 -6 4 -14q0 -7 -4 -13l-128 -192h266q23 0 23 -23q0 -24 -23 -24h-309z" />
    <glyph glyph-name="minus" unicode="&#x2212;" horiz-adv-x="404" 
d="M70 226q-24 0 -24 24q0 23 24 23h263q24 0 24 -23q0 -24 -24 -24h-263z" />
    <glyph glyph-name="radical" unicode="&#x221a;" horiz-adv-x="496" 
d="M112 323l-45 -52q-16 -17 -33 -2q-18 16 -2 34l70 79q8 10 21 8t18 -14l120 -295l168 420q9 22 31 13q21 -8 13 -30l-190 -475q-6 -15 -22 -15t-22 15z" />
    <glyph glyph-name="infinity" unicode="&#x221e;" horiz-adv-x="759" 
d="M231 67q-77 0 -127.5 51t-50.5 130q0 80 49 129t128 49q96 0 151 -114q44 114 155 114q84 0 131.5 -47t47.5 -131q0 -85 -47.5 -133t-130.5 -48q-96 0 -150 113q-45 -113 -156 -113zM307 343q-30 36 -77 36q-54 0 -88 -29q-42 -35 -42 -102q0 -59 36.5 -96.5t94.5 -37.5
q56 0 85 35q22 25 43 96q-29 72 -52 98zM460 149q30 -35 77 -35q130 0 130 134q0 131 -131 131q-56 0 -85 -35q-21 -26 -42 -97q29 -71 51 -98z" />
    <glyph glyph-name="integral" unicode="&#x222b;" horiz-adv-x="374" 
d="M107 -205q-24 0 -49 11t-31 20q-9 16 4.5 29t29.5 3q23 -16 46 -16q29 0 41.5 16t12.5 63v408q0 71 0 58q0 126 101 126q23 0 50 -12q23 -10 29 -19q10 -16 -3.5 -29.5t-29.5 -2.5q-24 16 -46 16q-29 0 -41.5 -16t-12.5 -63v-328v-121q0 -22 0 -17q0 -126 -101 -126z" />
    <glyph glyph-name="approxequal" unicode="&#x2248;" horiz-adv-x="398" 
d="M259 113q-29 0 -72 35q-30 24 -42 24q-44 0 -51 -33q-5 -23 -28 -18q-23 4 -18 27q4 25 25 45q28 26 72 26q29 0 72 -34q30 -24 42 -24q44 0 44 33q0 23 24 23q23 0 23 -23q0 -33 -20 -54q-24 -27 -71 -27zM259 233q-29 0 -72 35q-30 24 -42 24q-44 0 -51 -33
q-5 -23 -28 -19q-23 5 -18 28q4 25 25 45q28 26 72 26q29 0 72 -34q30 -25 42 -25q44 0 44 33q0 24 24 24q23 0 23 -24q0 -32 -20 -53q-24 -27 -71 -27z" />
    <glyph glyph-name="notequal" unicode="&#x2260;" horiz-adv-x="404" 
d="M178 175l-39 -79q-10 -21 -31 -11q-22 11 -11 32l28 58h-59q-24 0 -24 23q0 24 24 24h83l38 78h-121q-24 0 -24 24q0 23 24 23h145l34 69q10 21 31 11q21 -11 11 -32l-24 -48h66q24 0 24 -23q0 -24 -24 -24h-89l-39 -78h128q24 0 24 -24q0 -23 -24 -23h-151z" />
    <glyph glyph-name="lessequal" unicode="&#x2264;" horiz-adv-x="337" 
d="M53 206q-15 6 -15 22t15 22l213 86q12 4 22.5 -3t10.5 -19q0 -16 -15 -22l-159 -64l159 -64q15 -6 15 -22q0 -12 -10.5 -19t-22.5 -3zM63 2q-24 0 -24 23q0 24 24 24h218q24 0 24 -24q0 -23 -24 -23h-218z" />
    <glyph glyph-name="greaterequal" unicode="&#x2265;" horiz-adv-x="337" 
d="M290 250q15 -6 15 -22t-15 -22l-213 -86q-12 -4 -22 3t-10 19q0 16 14 22l159 64l-159 64q-14 6 -14 22q0 12 10 19t22 3zM280 49q24 0 24 -24q0 -23 -24 -23h-218q-24 0 -24 23q0 24 24 24h218z" />
    <glyph glyph-name="lozenge" unicode="&#x25ca;" horiz-adv-x="479" 
d="M56 232q-10 13 0 27l164 237q7 10 19 10t19 -10l164 -237q10 -14 0 -28l-168 -223q-7 -10 -19 -10t-19 10zM374 246l-135 195l-135 -196l131 -183z" />
    <glyph glyph-name="uniFB01" unicode="&#xfb01;" horiz-adv-x="383" 
d="M286 286h-137v-268q0 -24 -23 -24q-24 0 -24 24v268h-46q-24 0 -24 23q0 24 24 24h46v54q0 126 111 126q22 0 54.5 -13t36.5 -29q4 -11 -4.5 -19t-20.5 -8q-8 0 -28 11t-38 11q-64 0 -64 -79v-54h161q23 0 23 -24v-291q0 -23 -24 -23q-23 0 -23 23v268z" />
    <glyph glyph-name="uniFB02" unicode="&#xfb02;" horiz-adv-x="383" 
d="M286 286h-137v-268q0 -23 -24 -23q-23 0 -23 23v268h-46q-24 0 -24 24q0 23 24 23h46v55q0 125 101 125q23 0 23 -23q0 -24 -23 -24q-29 0 -41 -14q-13 -17 -13 -64v-55h137v153q0 24 23 24q24 0 24 -24v-467q0 -24 -24 -24q-23 0 -23 24v267z" />
    <glyph glyph-name="glyph244" horiz-adv-x="500" 
 />
    </font>
</defs>
</svg>
