<?xml version="1.0" encoding="utf-8"?>
<!-- Generator: Adobe Illustrator 25.0.0, SVG Export Plug-In . SVG Version: 6.00 Build 0)  -->
<svg version="1.1" id="Livello_1" xmlns="http://www.w3.org/2000/svg" xmlns:xlink="http://www.w3.org/1999/xlink" x="0px" y="0px"
	 viewBox="0 0 322.4 59.8" style="enable-background:new 0 0 322.4 59.8;" xml:space="preserve">
<style type="text/css">
	.st0{fill:#0F402E;stroke:#000000;stroke-width:0.25;stroke-miterlimit:10;}
	.st1{fill:#0F402E;}
</style>
<path id="letter1" class="st0" d="M37.1,58.4c-0.5-0.4-0.9-0.9-1.2-1.6c-0.2-0.6-0.4-1.3-0.4-2c0-1.3,0.3-2.7,0.8-3.9
	c0.6-1.4,1.2-2.8,1.9-4.2c1-2,2.2-4.1,3.7-6.3c1.4-2.2,2.9-4.5,4.5-6.8l-2.9-0.2c-1,0-2-0.1-2.9-0.1c-1.8,0-3.5,0.1-5.4,0.2
	s-3.7,0.3-5.5,0.6c-1.9,2.3-3.9,4.6-5.9,7s-4,4.6-6.1,6.8c-0.7,0.7-1.6,1.7-2.7,2.9s-2.3,2.3-3.7,3.5c-1.2,1.1-2.5,2.1-3.9,3
	c-1,0.7-2.2,1.2-3.4,1.2c-0.7,0-1.3-0.2-1.8-0.7c-0.5-0.5-0.8-1.2-1.1-1.9c-0.3-0.8-0.4-1.7-0.4-2.6c0-1.7,0.4-3.4,1-5
	c0.7-1.8,1.7-3.5,3-5c1.4-1.5,3.1-2.9,4.9-3.9c1.9-1.2,4-2.2,6.1-3c2.2-0.8,4.4-1.5,6.7-2.1c2.3-0.6,4.6-1,6.8-1.3l2-2.3l5.5-6.6
	c1.9-2.2,3.7-4.4,5.6-6.5c0.6-0.7,1.4-1.6,2.4-2.7s2.1-2.3,3.3-3.6s2.5-2.5,3.8-3.8c1.2-1.2,2.6-2.3,3.9-3.4
	c1.1-0.9,2.3-1.6,3.6-2.2c0.9-0.5,2-0.6,3-0.4c0.7,0.2,1.3,0.6,1.7,1.2c0.3,0.6,0.5,1.2,0.5,1.9c0,0.7-0.1,1.4-0.3,2
	c-0.2,0.8-0.5,1.5-0.8,2.3c-0.3,0.8-0.7,1.5-1.1,2.3c-0.4,0.8-0.8,1.5-1.2,2.1c-1.4,2.5-3,5-4.8,7.6s-3.5,5.1-5.3,7.6
	c-0.5,0.7-1,1.5-1.5,2.1s-1,1.4-1.5,2.1c0.8,0.1,1.7,0.2,2.6,0.4c0.9,0.1,1.8,0.3,2.7,0.6c0.8,0.2,1.6,0.5,2.3,0.9
	c0.6,0.3,1.1,0.7,1.5,1.3c0.2,0.4,0.3,0.8,0.3,1.2c0,0.2-0.1,0.5-0.3,0.7c-0.1,0.1-0.3,0.2-0.5,0.1c-0.2-0.1-0.3-0.2-0.4-0.4
	c-0.1-0.6-0.4-1.1-0.8-1.5c-0.6-0.4-1.2-0.8-1.9-1c-0.9-0.3-1.9-0.6-2.8-0.7c-1-0.2-2.2-0.3-3.4-0.5c-1.4,2-2.7,4-3.9,6
	s-2.4,4.1-3.6,6.2c-0.8,1.5-1.5,3-2.2,4.5c-0.6,1.3-0.9,2.7-1,4.1c0,0.6,0.1,1.1,0.3,1.7c0.2,0.5,0.5,1,1,1.3l0,0
	c0.1,0,0.2,0.2,0.2,0.3c0,0.2-0.1,0.4-0.3,0.5c-0.1,0.1-0.3,0.2-0.4,0.2C37.4,58.5,37.3,58.5,37.1,58.4L37.1,58.4z M16.9,47.5
	c1.9-2.1,3.8-4.2,5.8-6.5c1.9-2.2,3.8-4.4,5.6-6.6c-2.2,0.3-4.4,0.8-6.7,1.4c-2.3,0.6-4.5,1.3-6.7,2.2c-2.1,0.9-4.1,1.9-5.9,3.2
	c-1.7,1.2-3.2,2.6-4.5,4.3c-0.7,1.1-1.3,2.4-1.7,3.7c-0.4,1.3-0.6,2.6-0.6,3.9c0,0.9,0.1,1.7,0.4,2.5c0.2,0.7,0.6,1.2,1.2,1.6
	c0.5,0.3,1.2,0.3,1.7,0c0.8-0.3,1.6-0.7,2.3-1.2c0.9-0.6,1.8-1.3,2.6-2c0.9-0.8,1.8-1.6,2.6-2.4s1.6-1.6,2.3-2.3
	S16.5,47.9,16.9,47.5z M50.2,28.2c1.8-2.6,3.5-5.1,5.2-7.7c1.7-2.5,3.3-5,4.7-7.4l1.1-2c0.4-0.7,0.7-1.4,1-2.2
	c0.3-0.7,0.5-1.4,0.8-2.1c0.2-0.6,0.3-1.3,0.3-1.9c0-0.5-0.1-1-0.4-1.5c-0.3-0.4-0.8-0.7-1.3-0.8c-0.9-0.2-1.8,0-2.6,0.5
	c-1.2,0.6-2.3,1.4-3.4,2.3c-1.3,1.1-2.6,2.2-3.8,3.4c-1.3,1.3-2.6,2.6-3.8,3.9s-2.4,2.6-3.5,3.8L42,19.5l0,0l-0.9,1.1
	c-1,1.2-2,2.4-3.1,3.7L34.9,28c-0.7,0.9-1.4,1.7-2.1,2.5s-1.4,1.6-2.2,2.5c1.9-0.2,3.8-0.4,5.6-0.5c1.8-0.2,3.5-0.2,5-0.2
	c1.2,0,2.3,0,3.3,0.1s1.9,0.1,2.7,0.2L50.2,28.2z"/>
<path id="letter2" class="st1" d="M58.3,36.7c-0.5,0.7-1,1.6-1.7,2.7s-1.4,2.2-2,3.3l1.4-1.7c0.4-0.5,0.8-1,1.2-1.4s0.7-0.8,1-1.2
	l0.3-0.3c0.4-0.5,1-1.2,1.8-2c0.7-0.8,1.5-1.5,2.4-2.2c0.7-0.6,1.5-1.1,2.3-1.5c0.7-0.3,1.3-0.3,1.7,0.2c0.3,0.5,0.4,1.1,0.3,1.6
	c-0.1,0.8-0.2,1.6-0.4,2.6c-0.1,0.5-0.2,1.1-0.4,1.7C66,39,66,39.5,66,40c0,0.4,0.1,0.8,0.2,1.1c0.2,0.3,0.5,0.5,0.9,0.4
	c0.2,0,0.5-0.1,0.7-0.1c0.3-0.1,0.6-0.2,0.8-0.3c0.6-0.3,1.2-0.5,1.8-0.9c0.6-0.3,1.3-0.7,1.9-1.1s1.3-0.8,1.9-1.2l1.7-1.1l0.9-0.6
	c0.4-0.3,0.7-0.2,0.8,0.1c0,0.1,0,0.2-0.1,0.4c-0.1,0.1-0.2,0.3-0.3,0.3L75.8,38c-0.8,0.5-1.6,1.1-2.4,1.6s-1.6,1-2.4,1.4
	c-0.9,0.5-1.7,0.9-2.7,1.3c-0.6,0.2-1.2,0.4-1.8,0.4c-0.5,0.1-1.1-0.2-1.4-0.6c-0.3-0.5-0.4-1-0.4-1.6c0-0.6,0.1-1.2,0.2-1.7
	c0.1-0.6,0.2-1.2,0.4-1.8s0.3-1.4,0.4-2c0.1-0.5,0.1-1-0.1-1.4c-0.1-0.3-0.4-0.3-0.9-0.1c-0.6,0.3-1.2,0.7-1.7,1.2
	c-0.6,0.6-1.3,1.3-2.1,2.1s-1.5,1.6-2.2,2.4s-1.5,1.6-2.1,2.4S55.5,43,55,43.5v0l-1,1.2l-0.1,0.1c-0.1,0.2-0.3,0.3-0.5,0.5L53,45.9
	c-0.2,0.2-0.3,0.3-0.5,0.4c-0.1,0.1-0.3,0.1-0.5,0c-0.1-0.1,0-0.3,0.1-0.8c0.2-0.6,0.5-1.1,0.8-1.7c0.4-0.7,0.8-1.4,1.2-2.2
	s0.9-1.5,1.3-2.2l1.2-1.8c0.3-0.5,0.6-0.9,0.7-1c0.2-0.2,0.4-0.4,0.7-0.4C58.5,36,58.6,36.2,58.3,36.7z"/>
<path id="letter3" class="st1" d="M109.3,15.6c-0.4,1.3-1.1,2.5-1.9,3.6c-1.1,1.4-2.4,2.8-3.7,4c-1.5,1.4-3.1,2.7-4.9,4.1
	s-3.6,2.7-5.3,3.9c-1.8,1.2-3.5,2.4-5.2,3.5s-3.1,2-4.4,2.8c-0.7,1.2-1.3,2.5-1.9,3.8c-0.3,0.8-0.5,1.6-0.6,2.5
	c-0.1,0.7,0.4,1.3,1,1.3c0.1,0,0.2,0,0.3,0c0.9,0,1.7-0.2,2.5-0.6c1.2-0.5,2.3-1,3.4-1.7c1.2-0.7,2.6-1.6,4.1-2.5c1.5-1,3-2,4.6-3.2
	l0.9-0.7c0.1-0.1,0.2-0.2,0.4-0.2c0.2,0,0.3,0,0.4,0.2c0.1,0.1,0.1,0.2,0,0.3C99,36.8,98.9,37,98.7,37c-1,0.7-2,1.5-3.2,2.3
	s-2.3,1.6-3.5,2.4s-2.4,1.5-3.6,2.1c-1,0.6-2.1,1.1-3.2,1.6l0,0c-0.6,0.2-1.1,0.4-1.7,0.5c-0.4,0.1-0.9,0.2-1.3,0.2
	c-0.6,0.1-1.2-0.2-1.6-0.6c-0.3-0.4-0.5-1-0.5-1.5c0-0.9,0.2-1.8,0.6-2.6c0.4-1,0.8-2,1.2-2.9L80,40c-0.7,0.5-1.4,0.9-2.1,1.3
	c-0.6,0.4-1.3,0.7-1.9,0.9c-0.5,0.2-1,0.4-1.6,0.4c-0.7,0.1-1.1-0.1-1.2-0.5c-0.1-0.6,0-1.1,0.3-1.6c0.4-0.8,0.9-1.5,1.4-2.2
	c0.7-0.8,1.5-1.6,2.3-2.4c0.6-0.5,1.2-1.1,1.9-1.6c0.6-0.5,1.3-0.9,2-1.2c0.6-0.3,1.2-0.6,1.9-0.7c0.5-0.2,1.1-0.2,1.7-0.1
	c0.5,0.1,0.8,0.4,0.9,0.9c1-1.5,2.1-3.1,3.4-4.9s2.6-3.5,4-5.2s2.8-3.4,4.2-4.9c1.2-1.3,2.6-2.6,4-3.7c0.8-0.6,1.7-1.1,2.7-1.5
	c0.8-0.3,1.6-0.5,2.5-0.5c0.9,0,1.7,0.2,2.4,0.8C109.3,13.9,109.5,14.7,109.3,15.6z M84.2,35.1c-0.3,0.2-0.5,0.2-0.6,0
	c-0.3-0.2-0.2-0.5,0.2-0.8c0.2-0.1,0.4-0.4,0.4-0.6c0-0.2,0-0.4-0.2-0.5c-0.5-0.1-0.9,0-1.3,0.1c-0.6,0.2-1.1,0.4-1.6,0.7
	c-0.6,0.3-1.1,0.6-1.6,1c-0.6,0.4-1.1,0.8-1.6,1.3s-0.9,0.9-1.3,1.4s-0.8,0.9-1.1,1.3c-0.3,0.4-0.6,0.8-0.8,1.2
	c-0.2,0.3-0.3,0.6-0.3,0.9c0,0.4,0.5,0.4,1.4,0.1c1.6-0.7,3.2-1.6,4.6-2.7l2.8-2l0.4-0.7L84.2,35.1z M101.7,15.1
	c-1.6,1.2-3.1,2.6-4.5,4.2c-1.6,1.8-3.1,3.6-4.7,5.6c-1.5,2-3,3.9-4.3,5.9c-1.3,1.9-2.5,3.6-3.4,5l4.3-2.8c1.6-1,3.2-2.1,4.8-3.3
	s3.3-2.4,4.9-3.6s3-2.5,4.3-3.7c1.2-1.1,2.3-2.3,3.2-3.5c0.8-0.9,1.3-2,1.6-3.1c0.2-0.6,0-1.2-0.4-1.7c-0.5-0.4-1.1-0.6-1.8-0.6
	c-0.7,0-1.4,0.1-2,0.4C103.1,14.2,102.3,14.6,101.7,15.1L101.7,15.1z"/>
<path id="letter4" class="st1" d="M99.7,36.4c0.3,0.1,0.6,0.4,0.8,0.7c0.2,0.3,0.2,0.8-0.1,1.5c-0.2,0.5-0.5,0.9-0.8,1.4
	c-0.4,0.6-0.7,1.1-1.1,1.8s-0.8,1.2-1.2,1.8c-0.3,0.4-0.5,0.9-0.5,1.4c0,0.3,0.5,0.4,1.4,0.1c1.1-0.4,2.1-0.9,3.1-1.5
	c1.2-0.8,2.5-1.6,3.8-2.4c1.3-0.9,2.5-1.7,3.7-2.6c1.2-0.8,2.1-1.6,2.9-2.1c0.1-0.1,0.3-0.2,0.5-0.2c0.1-0.1,0.3,0,0.3,0.1
	c0,0,0,0,0,0v0c0.2,0.2,0.2,0.4,0,0.6c-0.8,0.6-1.9,1.5-3.3,2.4s-2.8,2-4.2,3s-2.9,1.8-4.2,2.6c-1,0.6-2.1,1.1-3.3,1.3
	c-0.9,0.1-1.4,0.1-1.7-0.2c-0.2-0.3-0.3-0.8-0.1-1.1c0.2-0.6,0.5-1.2,0.8-1.7c0.4-0.6,0.8-1.3,1.3-1.9c0.3-0.4,0.5-0.7,0.7-1.1
	c0.2-0.3,0.4-0.7,0.6-1.1c0.3-0.7,0.4-1.1,0.3-1.3c-0.1-0.2-0.3-0.4-0.6-0.5L98.2,37c-0.3-0.3-0.4-0.8-0.2-1.2
	c0.2-0.6,0.5-1.1,0.8-1.6c0.4-0.5,0.8-1,1.3-1.4c0.4-0.3,0.9-0.6,1.4-0.7c0.6,0,0.8,0.1,0.8,0.4c0,0.4-0.2,0.8-0.4,1.1
	c-0.3,0.5-0.7,1-1.1,1.4C100.4,35.6,100,36,99.7,36.4L99.7,36.4z M101,33.3c-0.2,0.1-0.4,0.2-0.6,0.3c-0.2,0.2-0.4,0.4-0.6,0.6
	c-0.2,0.2-0.4,0.5-0.6,0.7c-0.2,0.2-0.3,0.5-0.3,0.7c0.2-0.2,0.5-0.5,0.7-0.7s0.5-0.5,0.7-0.8s0.4-0.4,0.5-0.6S101.1,33.3,101,33.3
	L101,33.3z"/>
<path id="letter5" class="st1" d="M113.7,39c-0.8,0.6-1.6,1.1-2.5,1.4c-0.8,0.3-1.5,0.5-2.3,0.6c-0.3,0.5-0.5,1-0.7,1.6
	c-0.2,0.4-0.3,0.9-0.3,1.3c-0.1,0.4,0.1,0.9,0.5,1.1c0.4,0.2,0.9,0.2,1.4,0.2c0.8-0.1,1.6-0.3,2.4-0.7c1.8-0.7,3.5-1.5,5.1-2.4
	c1.8-1,3.7-2.1,5.4-3.2c1.4-0.9,2.7-1.7,3.9-2.5c0.1-0.1,0.3-0.2,0.5-0.2c0.1,0,0.3,0.1,0.3,0.2c0.1,0.3,0,0.5-0.4,0.8l-1.3,0.8
	c-0.4,0.3-0.9,0.5-1.3,0.8c-0.4,0.3-0.8,0.6-1.3,0.8c-0.9,0.6-1.9,1.2-2.8,1.7s-1.9,1.1-2.9,1.7s-1.9,1-2.8,1.4s-1.7,0.8-2.5,1.1
	c-1.1,0.4-2.2,0.7-3.4,0.7c-0.6,0-1.2-0.2-1.7-0.5c-0.4-0.4-0.6-0.9-0.6-1.4c0.1-1,0.4-2,0.9-2.8c0.3-0.5,0.6-1,1-1.5
	c0.4-0.6,0.9-1.2,1.4-1.7c0.7-0.7,1.4-1.4,2.1-2.1c0.6-0.6,1.3-1.1,2.1-1.4c0.5-0.3,1.2-0.4,1.8-0.3c0.4,0.1,0.7,0.5,0.6,0.9
	c-0.1,0.6-0.3,1.2-0.7,1.7C115.2,37.8,114.5,38.4,113.7,39z M110.7,38.6c-0.4,0.4-0.7,0.8-1,1.2c0.8-0.2,1.5-0.4,2.2-0.8
	c0.8-0.4,1.5-0.9,2.2-1.5c0.4-0.4,0.7-0.8,0.9-1.2c0.2-0.2,0.2-0.5,0.2-0.8c-0.2-0.2-0.7-0.1-1.5,0.3
	C112.6,36.6,111.6,37.5,110.7,38.6L110.7,38.6z"/>
<path id="letter6" class="st1" d="M134.9,34.7c0.1,0.3,0,0.6-0.1,0.8c-0.1,0.3-0.3,0.6-0.4,0.9l0,0l-0.1,0.3c-0.6,1.2-0.9,2.5-1,3.8
	c0,0.7,0.3,1.1,1,1.1c1,0,3-0.8,6.1-2.5v0c0.8-0.5,1.6-0.9,2.4-1.4l2.5-1.5c0.1-0.1,0.3-0.1,0.5-0.1c0.1,0,0.3,0.1,0.3,0.2
	c0.1,0.1,0,0.3-0.1,0.4c-0.1,0.1-0.2,0.2-0.4,0.3l-2.8,1.7c-1.1,0.6-2.1,1.2-3.2,1.8c-1,0.5-2.1,1-3.1,1.5c-0.8,0.4-1.7,0.6-2.5,0.6
	c-0.6,0-1.1-0.2-1.5-0.6c-0.4-0.7-0.5-1.4-0.3-2.2c0.1-0.4,0.2-0.8,0.4-1.4s0.4-1.2,0.6-1.7l-0.1,0.1l-2.2,2.3
	c-0.8,0.8-1.6,1.7-2.5,2.5s-1.7,1.6-2.5,2.3c-0.7,0.6-1.5,1.2-2.3,1.6c-0.3,0.2-0.7,0.3-1,0.4c-0.3,0.1-0.7,0.1-1,0
	c-0.3-0.1-0.5-0.3-0.6-0.6c-0.1-0.4-0.1-0.9,0.1-1.3c0.2-0.4,0.3-0.9,0.5-1.3c0.2-0.5,0.5-0.9,0.7-1.3c0.3-0.4,0.6-0.8,0.8-1.2
	l0.8-1c1-1.2,2.1-2.3,3.3-3.4c0.9-0.8,1.9-1.5,3-2.2c0.8-0.5,1.6-0.9,2.5-1.2c0.6-0.2,1.3-0.3,1.9-0.3c0.4,0,0.8,0.1,1.1,0.3
	c0.2,0.2,0.4,0.4,0.4,0.7c0,0.4-0.3,0.9-1,1.4L134.9,34.7z M134.7,33.8c0.3-0.2,0.4-0.4,0.3-0.6c-0.1-0.2-0.3-0.2-0.7-0.2
	c-0.6,0.1-1.1,0.2-1.6,0.4c-0.8,0.3-1.6,0.7-2.3,1.2c-0.8,0.5-1.6,1.2-2.3,1.8c-0.9,0.8-1.7,1.7-2.5,2.6c-0.8,0.9-1.5,1.8-2.1,2.7
	c-0.5,0.7-0.9,1.5-1.2,2.3c-0.1,0.2-0.1,0.5,0.1,0.7c0.2,0.2,0.5,0.2,0.8,0c0.6-0.3,1.1-0.7,1.6-1.2c0.6-0.5,1.3-1.2,2.1-1.9
	s1.5-1.4,2.2-2.2s1.4-1.5,2.1-2.2s1.4-1.5,1.9-2c0.3-0.3,0.6-0.6,0.9-0.9l0.3-0.1c0-0.1,0-0.2,0.1-0.3
	C134.4,34,134.5,33.9,134.7,33.8L134.7,33.8z"/>
<path id="letter7" class="st1" d="M159.2,39c-0.7,0.6-1.6,1.1-2.5,1.4c-0.7,0.3-1.5,0.5-2.3,0.6c-0.3,0.5-0.5,1-0.8,1.6
	c-0.2,0.4-0.2,0.9-0.3,1.3c0,0.6,0.2,0.9,0.5,1.1c0.4,0.2,0.9,0.2,1.4,0.2c0.8-0.1,1.6-0.3,2.4-0.7c1.8-0.7,3.5-1.5,5.1-2.4
	c1.9-1,3.7-2.1,5.4-3.2c1.4-0.9,2.7-1.7,3.9-2.5c0.1-0.1,0.3-0.2,0.5-0.2c0.1,0,0.3,0.1,0.3,0.2c0.1,0.3,0,0.5-0.4,0.8l-1.3,0.8
	c-0.4,0.3-0.9,0.5-1.3,0.8c-0.4,0.3-0.8,0.6-1.3,0.8c-0.9,0.6-1.9,1.2-2.8,1.7s-1.9,1.1-2.9,1.7s-1.9,1-2.8,1.4s-1.7,0.8-2.5,1.1
	c-1.1,0.4-2.2,0.7-3.4,0.7c-0.6,0-1.2-0.2-1.7-0.5c-0.4-0.4-0.6-0.9-0.6-1.4c0.1-1,0.4-2,0.9-2.8c0.3-0.5,0.6-1,1-1.5
	c0.4-0.6,0.9-1.2,1.4-1.7c0.7-0.7,1.3-1.5,2.1-2.1c0.6-0.6,1.3-1.1,2.1-1.4c0.6-0.3,1.2-0.4,1.8-0.3c0.4,0.1,0.6,0.5,0.6,0.9
	c-0.1,0.6-0.3,1.2-0.7,1.7C160.7,37.8,160,38.4,159.2,39z M156.2,38.6c-0.4,0.4-0.7,0.8-1,1.2c0.8-0.2,1.5-0.4,2.2-0.8
	c0.8-0.4,1.5-0.9,2.2-1.5c0.4-0.4,0.7-0.8,0.9-1.2c0.1-0.2,0.2-0.5,0.2-0.8c-0.2-0.2-0.7-0.1-1.5,0.3C158,36.6,157,37.5,156.2,38.6z
	"/>
<path id="letter8" class="st1" d="M210.9,12.1c0.6-0.1,1.2,0,1.7,0.4c0.3,0.4,0.5,0.9,0.5,1.4c0,0.5-0.1,1.1-0.2,1.6
	c-0.2,0.6-0.4,1.2-0.6,1.8c-0.2,0.6-0.5,1.2-0.8,1.7s-0.5,1-0.7,1.5c-1.2,2.4-2.8,5.1-4.6,8s-3.8,5.9-5.8,8.9c-2.1,3-4.2,6-6.3,9
	s-4.1,5.7-6,8.3c-0.4,0.6-0.9,1.2-1.3,1.8l-1.2,1.8c-0.1,0.1-0.2,0.2-0.3,0.2c-0.1,0.1-0.2,0.1-0.4,0.1c-0.1,0-0.3-0.1-0.3-0.2
	c0-0.2,0-0.3,0.1-0.5l1.6-2.2c1.8-2.5,3.8-5.2,5.8-8.1c2.1-2.8,4.1-5.7,6.1-8.7c2-3,3.9-5.9,5.8-8.7s3.5-5.6,4.9-8.2
	c0.2-0.4,0.5-0.9,0.9-1.6s0.7-1.4,1-2.1s0.6-1.5,0.9-2.2c0.2-0.6,0.3-1.2,0.4-1.8c0-0.8-0.4-1.1-1.2-1.1c-0.5,0-0.6-0.2-0.4-0.6
	c0.1-0.1,0.2-0.3,0.3-0.3C210.6,12.2,210.7,12.1,210.9,12.1L210.9,12.1z M208.7,58.5c-1.2-0.1-2.3-0.7-3.1-1.5
	c-0.9-0.9-1.6-2-2.1-3.1c-0.6-1.2-1-2.5-1.3-3.8c-0.3-1.3-0.6-2.5-0.7-3.5c-0.2-0.9-0.3-1.9-0.4-2.8c-0.1-1.1-0.1-2.1-0.1-3.2
	c0-0.7,0-1.5,0.1-2.2c0-0.7,0.1-1.3,0.3-2c0.2-0.7,0.4-1.1,0.7-1.2c0.4-0.1,0.8-0.1,1.1,0l0.4,0.1c0.2,0,0.3,0.1,0.5,0.1
	c0.9,0.1,1.8,0.1,2.7,0.1c2.1,0,4.3-0.3,6.4-0.8c2.3-0.6,4.4-1.4,6.5-2.4c2.2-1.1,4.3-2.5,6.3-4.1c2.1-1.7,4-3.7,5.6-5.8
	c1.5-1.8,2.7-3.9,3.7-6.1c0.8-1.7,1.2-3.6,1.2-5.5c0-1.9-0.6-3.7-1.9-5.1c-1.4-1.5-3.3-2.5-5.3-3c-1.1-0.2-2.1-0.3-3.2-0.3
	c-3,0.1-5.9,0.6-8.7,1.6c-3.3,1.1-6.4,2.6-9.4,4.4c-3.2,1.9-6.2,4-9,6.3c-2.8,2.2-5.4,4.7-7.7,7.4c-0.7,0.9-1.4,1.7-2.1,2.6
	c-0.6,0.8-1.2,1.7-1.7,2.6c-0.4,0.8-0.8,1.6-1.1,2.5c-0.3,0.7-0.4,1.5-0.4,2.2c0,1,0.4,2,1.1,2.8l0,0c0.3,0.2,0.2,0.4-0.1,0.8
	c-0.1,0.1-0.3,0.2-0.5,0.3c-0.1,0-0.3,0-0.4-0.1c-0.9-0.9-1.4-2.1-1.3-3.3c0-0.9,0.2-1.8,0.5-2.6c0.4-1,0.8-2,1.4-3c0.6-1,1.3-2,2-3
	c0.8-1,1.6-2,2.4-3c1.6-1.8,3.3-3.5,5.2-5.1c1.9-1.7,3.8-3.2,5.9-4.7c2-1.4,4.1-2.8,6.2-4c2.1-1.2,4.2-2.2,6.4-3.1
	c2-0.8,4.1-1.5,6.2-2c1.9-0.4,3.8-0.7,5.7-0.7c2.1,0,4.1,0.4,6,1.1c1.6,0.6,2.9,1.7,3.8,3.2c0.9,1.5,1.3,3.1,1.2,4.8
	c0,1.3-0.2,2.5-0.6,3.7c-0.4,1.4-1,2.8-1.7,4.1c-0.8,1.5-1.7,2.9-2.7,4.3c-1.1,1.5-2.3,2.9-3.6,4.2c-1.7,1.7-3.6,3.1-5.6,4.4
	c-1.8,1.2-3.8,2.2-5.8,3.1c-1.8,0.8-3.8,1.4-5.7,1.8c-1.8,0.4-3.6,0.6-5.4,0.6c-1.3,0-2.6-0.1-3.9-0.3c-0.1,0.5-0.1,1.2-0.2,1.9
	s-0.1,1.4-0.1,2.1c0,1.8,0.1,3.7,0.4,5.5c0.2,1.8,0.7,3.6,1.2,5.4c0.5,1.5,1.2,2.9,2.1,4.2c0.8,1,1.9,1.7,3.2,1.9
	c0.4,0,0.6,0.2,0.4,0.4s-0.3,0.3-0.5,0.5C209,58.4,208.9,58.5,208.7,58.5z"/>
<path id="letter9" class="st1" d="M232.7,35.6c0-0.2-0.1-0.2-0.3-0.2c-0.2,0-0.4,0.1-0.6,0.2c-0.3,0.1-0.5,0.3-0.8,0.4
	c-0.2,0.2-0.5,0.3-0.6,0.5c-0.6,0.5-1.2,1.1-1.7,1.7c-0.5,0.6-0.9,1.3-1.3,2c-0.4,0.6-0.7,1.3-0.9,2c-0.2,0.5-0.3,1.1-0.3,1.7
	c-0.1,0.4,0.1,0.8,0.5,1.1c0.5,0.2,1.1,0.2,1.6-0.1c0.9-0.4,1.8-1,2.4-1.8c0.7-0.9,1.4-1.8,1.9-2.9c-0.2-0.2-0.4-0.4-0.5-0.7
	c-0.1-0.2-0.1-0.5-0.1-0.7c0-0.3,0.1-0.7,0.3-1c0.2-0.3,0.4-0.6,0.6-0.9c0.2-0.3,0.5-0.5,0.8-0.6c0.2-0.1,0.5-0.1,0.7,0
	c0.4,0.2,0.6,0.6,0.5,1.2c-0.1,0.7-0.4,1.4-0.7,2c0.3,0.1,0.7,0.2,1,0.3c0.4,0.1,0.7,0.1,1.1,0.1c1.3,0,2.6-0.3,3.8-0.7
	c1.4-0.5,2.6-1.2,3.8-2.1l0.7-0.6c0.1-0.1,0.2-0.2,0.4-0.3c0.1,0,0.2,0,0.3,0c0.4,0.2,0.4,0.5,0,0.8l-0.6,0.6c-1.4,1.1-3,2-4.7,2.6
	c-1.4,0.5-2.8,0.8-4.2,0.8l-1.3-0.1c-0.3,0-0.7-0.1-1-0.2c-0.3,0.5-0.6,1-0.9,1.5s-0.6,0.8-0.9,1.2c-0.5,0.5-0.9,1-1.5,1.4
	c-0.5,0.4-1,0.7-1.6,1c-0.5,0.2-1,0.4-1.6,0.5c-0.5,0.1-0.9-0.1-1.3-0.3c-0.5-0.4-0.8-1-0.7-1.6c0-0.9,0.3-1.8,0.6-2.7
	c0.4-1.1,1-2.1,1.7-3c0.7-1,1.5-1.9,2.5-2.7c0.9-0.7,1.9-1.3,3-1.5c0.8-0.1,1.3,0.1,1.4,0.7c0,0.3-0.3,0.6-0.6,0.7v0
	c-0.1,0.1-0.3,0.2-0.5,0.2C232.8,35.9,232.7,35.8,232.7,35.6z"/>
<path id="letter10" class="st1" d="M242.9,38.6c0.7-1.1,1.5-2.4,2.4-3.7c0.9-1.4,1.9-2.8,2.9-4.2c1-1.5,2.1-3,3.2-4.5
	c1.1-1.5,2.3-3,3.5-4.4c1.2-1.4,2.4-2.8,3.6-4c1.1-1.2,2.3-2.3,3.6-3.3c0.9-0.6,1.9-1.2,2.9-1.5c0.8-0.3,1.7-0.5,2.5-0.5
	c0.8-0.1,1.7,0.2,2.3,0.8c0.6,0.6,0.8,1.4,0.5,2.2c-0.3,1.3-0.9,2.5-1.8,3.5c-1.1,1.4-2.3,2.7-3.7,3.9c-1.5,1.3-3.1,2.7-4.9,4.1
	c-1.8,1.4-3.6,2.7-5.4,4c-1.8,1.3-3.6,2.4-5.2,3.5s-3.1,2-4.4,2.8l-1.5,2.3c-0.2,0.4-0.5,0.9-0.9,1.5c-0.3,0.6-0.6,1.2-0.8,1.8
	c-0.2,0.5-0.3,1-0.3,1.5c-0.1,0.4,0.2,0.7,0.6,0.8c0.9-0.1,1.8-0.4,2.6-0.9c0.8-0.6,1.5-1.3,2-2.2c0.3-0.4,0.5-0.8,0.7-1.3
	c0.2-0.5,0.4-1,0.5-1.6c-0.5-0.1-1-0.3-1.3-0.7c-0.2-0.2-0.3-0.4-0.4-0.7c-0.1-0.3,0-0.5,0.1-0.8c0.1-0.3,0.3-0.5,0.5-0.6
	c0.3-0.2,0.6-0.3,0.9-0.3c0.5-0.1,1,0.1,1.3,0.5c0.3,0.5,0.4,1,0.3,1.6l0.8,0.2c0.4,0,1.1,0,1.9,0c0.9,0,1.7-0.1,2.6-0.2
	c0.9-0.1,1.8-0.3,2.6-0.6c0.7-0.2,1.4-0.6,2-1.2l0,0c0.2-0.2,0.5-0.4,0.8-0.4c0.2,0,0.2,0.2,0.2,0.4c0,0.2-0.1,0.4-0.3,0.5
	c-0.5,0.5-1.1,0.9-1.7,1.2c-0.7,0.3-1.4,0.6-2.2,0.8c-0.8,0.2-1.6,0.4-2.4,0.5c-0.8,0.1-1.6,0.1-2.4,0.1c-0.7,0-1.5,0-2.2-0.1
	c-0.2,0.7-0.5,1.4-0.8,2c-0.4,0.7-0.9,1.3-1.4,1.9c-0.5,0.6-1.1,1.2-1.8,1.7c-0.6,0.5-1.3,0.8-2.1,1c-0.7,0.3-1.5,0.3-2.2,0
	c-0.4-0.3-0.7-0.8-0.6-1.3c0-0.5,0.1-1,0.3-1.4c0.2-0.6,0.4-1.1,0.7-1.7c0.3-0.6,0.6-1.1,0.9-1.7S242.6,39,242.9,38.6z M262.6,15.1
	c-1.5,1.2-2.9,2.6-4.2,4c-1.5,1.6-2.9,3.4-4.4,5.2s-2.9,3.8-4.3,5.7s-2.6,3.7-3.7,5.4c1.2-0.8,2.6-1.7,4.2-2.7
	c1.6-1,3.2-2.1,4.8-3.3c1.7-1.2,3.3-2.4,4.9-3.6c1.6-1.2,3-2.4,4.3-3.6c1.2-1.1,2.3-2.2,3.2-3.5c0.7-0.9,1.3-1.9,1.6-3.1
	c0.2-0.6,0-1.2-0.4-1.6c-0.5-0.4-1.1-0.5-1.8-0.5c-0.7,0-1.4,0.1-2.1,0.4C263.9,14.2,263.2,14.6,262.6,15.1z"/>
<path id="letter11" class="st1" d="M261.3,39c-0.8,0.6-1.6,1.1-2.5,1.4c-0.8,0.3-1.5,0.5-2.3,0.6c-0.3,0.5-0.5,1-0.8,1.6
	c-0.2,0.4-0.2,0.9-0.3,1.3c-0.1,0.4,0.1,0.9,0.5,1.1c0.4,0.2,0.9,0.2,1.4,0.2c0.8-0.1,1.6-0.3,2.4-0.7c1.8-0.7,3.5-1.5,5.1-2.4
	c1.9-1,3.7-2.1,5.4-3.2c1.4-0.9,2.7-1.7,3.9-2.5c0.1-0.1,0.3-0.2,0.5-0.2c0.1,0,0.3,0.1,0.3,0.2c0.1,0.3,0,0.5-0.4,0.8l-1.3,0.8
	c-0.4,0.3-0.9,0.5-1.3,0.8c-0.4,0.3-0.8,0.6-1.3,0.8c-0.9,0.6-1.9,1.2-2.8,1.7s-1.9,1.1-2.9,1.7s-1.9,1-2.8,1.4s-1.7,0.8-2.5,1.1
	c-1.1,0.4-2.2,0.7-3.4,0.7c-0.6,0-1.2-0.2-1.7-0.5c-0.4-0.4-0.6-0.9-0.6-1.4c0.1-1,0.4-2,0.9-2.8c0.3-0.5,0.6-1,1-1.5
	c0.4-0.6,0.9-1.2,1.4-1.7c0.7-0.7,1.4-1.4,2.1-2.1c0.6-0.6,1.3-1.1,2.1-1.4c0.5-0.3,1.2-0.4,1.8-0.3c0.4,0.1,0.6,0.5,0.6,0.9
	c-0.1,0.6-0.3,1.2-0.7,1.7C262.8,37.8,262.1,38.4,261.3,39z M258.3,38.6c-0.4,0.4-0.7,0.8-1,1.2c0.8-0.2,1.5-0.4,2.2-0.8
	c0.8-0.4,1.5-0.9,2.2-1.5c0.4-0.4,0.7-0.8,0.9-1.2c0.2-0.2,0.2-0.5,0.2-0.8c-0.2-0.2-0.7-0.1-1.5,0.3
	C260.2,36.6,259.2,37.5,258.3,38.6L258.3,38.6z"/>
<path id="letter12" class="st1" d="M275.7,36.4c0.3,0.1,0.6,0.4,0.8,0.7c0.2,0.3,0.1,0.8-0.1,1.5c-0.2,0.5-0.4,0.9-0.7,1.4
	c-0.4,0.6-0.8,1.1-1.1,1.8s-0.9,1.2-1.2,1.8c-0.3,0.4-0.5,0.9-0.5,1.4c0,0.3,0.5,0.4,1.4,0.1c1.1-0.4,2.2-0.9,3.1-1.5
	c1.2-0.8,2.5-1.6,3.8-2.4c1.3-0.9,2.5-1.7,3.7-2.6s2.1-1.6,2.9-2.1c0.1-0.1,0.3-0.2,0.5-0.2c0.1-0.1,0.3,0,0.3,0.1c0,0,0,0,0,0v0
	c0.2,0.2,0.2,0.4,0,0.6c-0.8,0.6-1.9,1.5-3.3,2.4s-2.8,2-4.2,3s-2.9,1.8-4.2,2.6c-1,0.6-2.1,1.1-3.3,1.3c-0.9,0.1-1.4,0.1-1.7-0.2
	c-0.2-0.3-0.3-0.8-0.1-1.1c0.2-0.6,0.5-1.2,0.8-1.7c0.4-0.6,0.8-1.3,1.3-1.9c0.3-0.3,0.5-0.7,0.7-1.1c0.2-0.3,0.4-0.7,0.6-1.1
	c0.3-0.7,0.4-1.1,0.3-1.3c-0.1-0.2-0.3-0.4-0.5-0.5l-0.6-0.4c-0.3-0.3-0.4-0.8-0.2-1.2c0.2-0.6,0.5-1.1,0.8-1.6
	c0.4-0.5,0.8-1,1.3-1.4c0.4-0.3,0.9-0.6,1.4-0.7c0.5,0,0.8,0.1,0.8,0.4c0,0.4-0.2,0.8-0.4,1.1c-0.3,0.5-0.7,1-1.1,1.4
	C276.4,35.6,276,36,275.7,36.4L275.7,36.4z M277,33.3c-0.2,0.1-0.4,0.2-0.5,0.3c-0.2,0.2-0.4,0.4-0.6,0.6c-0.2,0.2-0.4,0.5-0.5,0.7
	c-0.2,0.2-0.3,0.5-0.3,0.7l0.7-0.7c0.2-0.3,0.5-0.5,0.7-0.8l0.5-0.6C277.1,33.4,277.1,33.3,277,33.3L277,33.3z"/>
<path id="letter13" class="st1" d="M284,44.7c0.1-1.1,0.4-2.1,0.9-3.1c0.7-1.5,1.4-3,2.2-4.4c0.9-1.6,2-3.4,3.2-5.2
	c1.2-1.8,2.5-3.6,3.7-5.4c-1.5,0.2-3,0.4-4.4,0.6l-3.7,0.5l-0.6,0.1c-0.3,0.1-0.6-0.1-0.8-0.3c-0.1-0.1-0.2-0.3-0.1-0.4
	c0.1-0.1,0.2-0.2,0.3-0.3c0.1,0,0.2-0.1,0.3-0.1c0.2,0,0.3,0,0.5-0.1l1.6-0.3c0.7-0.1,1.4-0.2,2.2-0.3l2.6-0.4
	c1-0.1,1.9-0.2,2.9-0.3c1.8-2.5,3.5-4.8,5-6.8c1.6-2.1,2.8-3.7,3.6-4.8l0.5-0.6c0.2-0.3,0.5-0.4,0.8-0.4c0.2,0,0.3,0.1,0.4,0.2
	c0,0.2,0,0.4-0.2,0.5v0c-0.4,0.4-0.8,1.1-1.4,1.8c-0.6,0.8-1.3,1.7-2.1,2.7s-1.6,2.2-2.5,3.4s-1.8,2.5-2.8,3.9
	c1-0.1,2.1-0.2,3.3-0.3s2.1-0.1,3-0.1c0.8,0,1.7,0,2.5,0.1c0.6,0.1,1.2,0.2,1.8,0.5c0.4,0.1,0.7,0.4,0.9,0.8c0.1,0.5,0,0.9-0.3,1.3
	c-0.1,0.1-0.4,0.1-0.7,0s-0.6-0.4-0.5-0.6c0.3-0.4,0.3-0.7,0-0.9c-0.6-0.2-1.3-0.3-1.9-0.3c-1.4-0.1-2.7,0-4.1,0.1
	c-1.5,0.1-3.1,0.3-4.8,0.5c-1.3,1.8-2.5,3.6-3.8,5.4c-1.2,1.8-2.3,3.5-3.2,5.1c-0.8,1.4-1.6,2.8-2.3,4.3c-0.5,0.9-0.8,2-0.9,3
	c0,0.6,0.2,0.9,0.7,1c0.9-0.1,1.7-0.3,2.5-0.6c0.8-0.3,1.7-0.8,2.8-1.3c1.9-1,3.8-2.1,5.6-3.3c1.9-1.2,3.6-2.4,5.1-3.6
	c0.4-0.2,0.7-0.2,0.8,0v-0.2c0.1,0.1,0.1,0.3,0,0.4c-0.1,0.2-0.2,0.3-0.3,0.4l-2.5,1.8c-0.9,0.7-2,1.3-3,2s-2.2,1.4-3.3,2
	s-2.2,1.3-3.2,1.8c-0.9,0.5-1.9,0.9-2.9,1.2c-0.7,0.3-1.4,0.4-2.2,0.4c-0.4,0-0.8-0.2-1-0.5C284.1,45.4,284,45.1,284,44.7z"/>
<path id="letter14" class="st1" d="M310.1,34.7c0.1,0.3,0,0.6-0.1,0.8c-0.1,0.3-0.3,0.6-0.4,0.9l0,0l-0.1,0.3
	c-0.6,1.2-0.9,2.5-1,3.8c0,0.7,0.3,1.1,1,1.1c1,0,3-0.8,6-2.5v0c0.8-0.5,1.6-0.9,2.4-1.4l2.5-1.5c0.1-0.1,0.3-0.1,0.5-0.1
	c0.1,0,0.3,0.1,0.3,0.2c0.1,0.1,0,0.3-0.1,0.4c-0.1,0.1-0.2,0.2-0.4,0.3l-2.8,1.6c-1.1,0.6-2.1,1.2-3.2,1.8c-1,0.5-2.1,1-3.1,1.5
	c-0.8,0.4-1.7,0.6-2.5,0.6c-0.6,0-1.1-0.2-1.5-0.6c-0.4-0.7-0.5-1.4-0.3-2.2c0.1-0.3,0.2-0.8,0.5-1.4s0.4-1.2,0.6-1.7l-0.1,0.1
	l-2.2,2.3c-0.8,0.8-1.6,1.7-2.5,2.5s-1.7,1.6-2.5,2.3c-0.7,0.6-1.5,1.2-2.3,1.6c-0.3,0.2-0.7,0.3-1,0.4c-0.3,0.1-0.7,0.1-1,0
	c-0.3-0.1-0.5-0.3-0.6-0.6c-0.1-0.4-0.1-0.9,0.1-1.3c0.1-0.4,0.3-0.9,0.5-1.3c0.2-0.5,0.5-0.9,0.8-1.3s0.5-0.8,0.8-1.2
	s0.5-0.7,0.8-1c1-1.2,2.1-2.3,3.3-3.4c0.9-0.8,1.9-1.5,3-2.2c0.8-0.5,1.6-0.9,2.5-1.2c0.6-0.2,1.2-0.3,1.9-0.3
	c0.4,0,0.8,0.1,1.2,0.3c0.2,0.2,0.4,0.4,0.4,0.7c0,0.4-0.3,0.9-1,1.4L310.1,34.7z M309.9,33.8c0.3-0.2,0.4-0.4,0.3-0.6
	s-0.4-0.2-0.8-0.2c-0.6,0.1-1.1,0.2-1.6,0.4c-0.8,0.3-1.6,0.7-2.3,1.2c-0.8,0.5-1.6,1.2-2.3,1.8c-0.9,0.8-1.7,1.7-2.5,2.6
	c-0.8,0.9-1.5,1.8-2.1,2.7c-0.5,0.7-0.9,1.5-1.1,2.3c-0.1,0.2-0.1,0.5,0.1,0.7c0.2,0.2,0.5,0.2,0.8,0c0.6-0.3,1.1-0.7,1.6-1.2
	c0.6-0.5,1.3-1.2,2.1-1.9s1.5-1.4,2.2-2.2l2.1-2.2c0.7-0.8,1.4-1.5,1.9-2c0.3-0.3,0.6-0.6,0.9-0.9l0.3-0.1c0-0.1,0-0.2,0.1-0.3
	C309.7,34,309.8,33.9,309.9,33.8L309.9,33.8z"/>
<script  type="application/ecmascript">//<![CDATA[
        for(i=1;i<=16;i++){
            debugger
            var path = document.querySelector('#letter'+i);
            var length = path.getTotalLength();
            // Clear any previous transition
            path.style.transition = path.style.WebkitTransition =
                'none';
            // Set up the starting positions
            path.style.strokeDasharray = length + ' ' + length;
            path.style.strokeDashoffset = length;
            // Trigger a layout so styles are calculated & the browser
            // picks up the starting position before animating
            path.getBoundingClientRect();
            // Define our transition
            path.style.transition = path.style.WebkitTransition =
                'stroke-dashoffset 2s ease-in-out 0.2s';
            // Go!
            path.style.strokeDashoffset = '0';

        }
        //
	]]>
</script>
</svg>
